solid OpenSCAD_Model
  facet normal 0.994522 0.104528 0
    outer loop
      vertex 32.5 0 3
      vertex 31.7898 6.75713 0
      vertex 31.7898 6.75713 3
    endloop
  endfacet
  facet normal 0.994522 0.104528 0
    outer loop
      vertex 31.7898 6.75713 0
      vertex 32.5 0 3
      vertex 32.5 0 0
    endloop
  endfacet
  facet normal -0.994522 0.104528 0
    outer loop
      vertex -32.5 0 0
      vertex -31.7898 6.75713 3
      vertex -31.7898 6.75713 0
    endloop
  endfacet
  facet normal -0.994522 0.104528 0
    outer loop
      vertex -31.7898 6.75713 3
      vertex -32.5 0 0
      vertex -32.5 0 3
    endloop
  endfacet
  facet normal 0 1 -0
    outer loop
      vertex 3.39717 32.322 0
      vertex -3.39717 32.322 3
      vertex 3.39717 32.322 3
    endloop
  endfacet
  facet normal 0 1 0
    outer loop
      vertex -3.39717 32.322 3
      vertex 3.39717 32.322 0
      vertex -3.39717 32.322 0
    endloop
  endfacet
  facet normal 0 -1 0
    outer loop
      vertex -3.39717 -32.322 0
      vertex 3.39717 -32.322 3
      vertex -3.39717 -32.322 3
    endloop
  endfacet
  facet normal 0 -1 -0
    outer loop
      vertex 3.39717 -32.322 3
      vertex -3.39717 -32.322 0
      vertex 3.39717 -32.322 0
    endloop
  endfacet
  facet normal 0.587785 0.809017 -0
    outer loop
      vertex 21.7467 24.1522 0
      vertex 16.25 28.1458 3
      vertex 21.7467 24.1522 3
    endloop
  endfacet
  facet normal 0.587785 0.809017 0
    outer loop
      vertex 16.25 28.1458 3
      vertex 21.7467 24.1522 0
      vertex 16.25 28.1458 0
    endloop
  endfacet
  facet normal -0.743145 0.669131 0
    outer loop
      vertex -26.2931 19.103 0
      vertex -21.7467 24.1522 3
      vertex -21.7467 24.1522 0
    endloop
  endfacet
  facet normal -0.743145 0.669131 0
    outer loop
      vertex -21.7467 24.1522 3
      vertex -26.2931 19.103 0
      vertex -26.2931 19.103 3
    endloop
  endfacet
  facet normal 0 0 1
    outer loop
      vertex 22.5 0 3
      vertex 32.5 0 3
      vertex 31.7898 6.75713 3
    endloop
  endfacet
  facet normal 0 0 1
    outer loop
      vertex 22.0083 4.67801 3
      vertex 31.7898 6.75713 3
      vertex 29.6902 13.2189 3
    endloop
  endfacet
  facet normal 0 0 1
    outer loop
      vertex 32.5 0 3
      vertex 22.5 0 3
      vertex 31.7898 -6.75713 3
    endloop
  endfacet
  facet normal 0 0 1
    outer loop
      vertex 20.5548 9.15157 3
      vertex 29.6902 13.2189 3
      vertex 26.2931 19.103 3
    endloop
  endfacet
  facet normal -0 0 1
    outer loop
      vertex 22.0083 -4.67801 3
      vertex 31.7898 -6.75713 3
      vertex 22.5 0 3
    endloop
  endfacet
  facet normal 0 0 1
    outer loop
      vertex 31.7898 -6.75713 3
      vertex 22.0083 -4.67801 3
      vertex 29.6902 -13.2189 3
    endloop
  endfacet
  facet normal 0 0 1
    outer loop
      vertex 31.7898 6.75713 3
      vertex 22.0083 4.67801 3
      vertex 22.5 0 3
    endloop
  endfacet
  facet normal 0 0 1
    outer loop
      vertex 18.2029 13.2252 3
      vertex 26.2931 19.103 3
      vertex 21.7467 24.1522 3
    endloop
  endfacet
  facet normal 0 0 1
    outer loop
      vertex 29.6902 13.2189 3
      vertex 20.5548 9.15157 3
      vertex 22.0083 4.67801 3
    endloop
  endfacet
  facet normal 0 0 1
    outer loop
      vertex 26.2931 19.103 3
      vertex 18.2029 13.2252 3
      vertex 20.5548 9.15157 3
    endloop
  endfacet
  facet normal 0 0 1
    outer loop
      vertex 15.0554 16.7208 3
      vertex 21.7467 24.1522 3
      vertex 16.25 28.1458 3
    endloop
  endfacet
  facet normal 0 0 1
    outer loop
      vertex 21.7467 24.1522 3
      vertex 15.0554 16.7208 3
      vertex 18.2029 13.2252 3
    endloop
  endfacet
  facet normal 0 0 1
    outer loop
      vertex 16.25 28.1458 3
      vertex 11.25 19.4856 3
      vertex 15.0554 16.7208 3
    endloop
  endfacet
  facet normal 0 0 1
    outer loop
      vertex 10.0431 30.9093 3
      vertex 11.25 19.4856 3
      vertex 16.25 28.1458 3
    endloop
  endfacet
  facet normal 0 0 1
    outer loop
      vertex 10.0431 30.9093 3
      vertex 6.95288 21.3988 3
      vertex 11.25 19.4856 3
    endloop
  endfacet
  facet normal 0 0 1
    outer loop
      vertex 3.39717 32.322 3
      vertex 6.95288 21.3988 3
      vertex 10.0431 30.9093 3
    endloop
  endfacet
  facet normal 0 0 1
    outer loop
      vertex 3.39717 32.322 3
      vertex 2.35189 22.3767 3
      vertex 6.95288 21.3988 3
    endloop
  endfacet
  facet normal 0 0 1
    outer loop
      vertex 3.39717 32.322 3
      vertex -2.35189 22.3767 3
      vertex 2.35189 22.3767 3
    endloop
  endfacet
  facet normal -0 0 1
    outer loop
      vertex -3.39717 32.322 3
      vertex -2.35189 22.3767 3
      vertex 3.39717 32.322 3
    endloop
  endfacet
  facet normal 0 0 1
    outer loop
      vertex -3.39717 32.322 3
      vertex -6.95288 21.3988 3
      vertex -2.35189 22.3767 3
    endloop
  endfacet
  facet normal -0 0 1
    outer loop
      vertex -10.0431 30.9093 3
      vertex -6.95288 21.3988 3
      vertex -3.39717 32.322 3
    endloop
  endfacet
  facet normal 0 0 1
    outer loop
      vertex -10.0431 30.9093 3
      vertex -11.25 19.4856 3
      vertex -6.95288 21.3988 3
    endloop
  endfacet
  facet normal -0 0 1
    outer loop
      vertex -16.25 28.1458 3
      vertex -11.25 19.4856 3
      vertex -10.0431 30.9093 3
    endloop
  endfacet
  facet normal 0 0 1
    outer loop
      vertex -11.25 19.4856 3
      vertex -16.25 28.1458 3
      vertex -15.0554 16.7208 3
    endloop
  endfacet
  facet normal -0 0 1
    outer loop
      vertex -21.7467 24.1522 3
      vertex -15.0554 16.7208 3
      vertex -16.25 28.1458 3
    endloop
  endfacet
  facet normal 0 0 1
    outer loop
      vertex -15.0554 16.7208 3
      vertex -21.7467 24.1522 3
      vertex -18.2029 13.2252 3
    endloop
  endfacet
  facet normal -0 0 1
    outer loop
      vertex -26.2931 19.103 3
      vertex -18.2029 13.2252 3
      vertex -21.7467 24.1522 3
    endloop
  endfacet
  facet normal 0 0 1
    outer loop
      vertex -18.2029 13.2252 3
      vertex -26.2931 19.103 3
      vertex -20.5548 9.15157 3
    endloop
  endfacet
  facet normal -0 0 1
    outer loop
      vertex -29.6902 13.2189 3
      vertex -20.5548 9.15157 3
      vertex -26.2931 19.103 3
    endloop
  endfacet
  facet normal 0 0 1
    outer loop
      vertex -20.5548 9.15157 3
      vertex -29.6902 13.2189 3
      vertex -22.0083 4.67801 3
    endloop
  endfacet
  facet normal -0 0 1
    outer loop
      vertex 20.5548 -9.15157 3
      vertex 29.6902 -13.2189 3
      vertex 22.0083 -4.67801 3
    endloop
  endfacet
  facet normal 0 0 1
    outer loop
      vertex 29.6902 -13.2189 3
      vertex 20.5548 -9.15157 3
      vertex 26.2931 -19.103 3
    endloop
  endfacet
  facet normal -0 0 1
    outer loop
      vertex 18.2029 -13.2252 3
      vertex 26.2931 -19.103 3
      vertex 20.5548 -9.15157 3
    endloop
  endfacet
  facet normal 0 0 1
    outer loop
      vertex 26.2931 -19.103 3
      vertex 18.2029 -13.2252 3
      vertex 21.7467 -24.1522 3
    endloop
  endfacet
  facet normal -0 0 1
    outer loop
      vertex 15.0554 -16.7208 3
      vertex 21.7467 -24.1522 3
      vertex 18.2029 -13.2252 3
    endloop
  endfacet
  facet normal 0 0 1
    outer loop
      vertex 21.7467 -24.1522 3
      vertex 15.0554 -16.7208 3
      vertex 16.25 -28.1458 3
    endloop
  endfacet
  facet normal -0 0 1
    outer loop
      vertex 11.25 -19.4856 3
      vertex 16.25 -28.1458 3
      vertex 15.0554 -16.7208 3
    endloop
  endfacet
  facet normal 0 0 1
    outer loop
      vertex 11.25 -19.4856 3
      vertex 10.0431 -30.9093 3
      vertex 16.25 -28.1458 3
    endloop
  endfacet
  facet normal -0 0 1
    outer loop
      vertex 6.95288 -21.3988 3
      vertex 10.0431 -30.9093 3
      vertex 11.25 -19.4856 3
    endloop
  endfacet
  facet normal 0 0 1
    outer loop
      vertex 6.95288 -21.3988 3
      vertex 3.39717 -32.322 3
      vertex 10.0431 -30.9093 3
    endloop
  endfacet
  facet normal -0 0 1
    outer loop
      vertex 2.35189 -22.3767 3
      vertex 3.39717 -32.322 3
      vertex 6.95288 -21.3988 3
    endloop
  endfacet
  facet normal -0 0 1
    outer loop
      vertex -2.35189 -22.3767 3
      vertex 3.39717 -32.322 3
      vertex 2.35189 -22.3767 3
    endloop
  endfacet
  facet normal 0 0 1
    outer loop
      vertex -2.35189 -22.3767 3
      vertex -3.39717 -32.322 3
      vertex 3.39717 -32.322 3
    endloop
  endfacet
  facet normal 0 0 1
    outer loop
      vertex -6.95288 -21.3988 3
      vertex -3.39717 -32.322 3
      vertex -2.35189 -22.3767 3
    endloop
  endfacet
  facet normal 0 0 1
    outer loop
      vertex -6.95288 -21.3988 3
      vertex -10.0431 -30.9093 3
      vertex -3.39717 -32.322 3
    endloop
  endfacet
  facet normal 0 0 1
    outer loop
      vertex -11.25 -19.4856 3
      vertex -10.0431 -30.9093 3
      vertex -6.95288 -21.3988 3
    endloop
  endfacet
  facet normal 0 0 1
    outer loop
      vertex -16.25 -28.1458 3
      vertex -11.25 -19.4856 3
      vertex -15.0554 -16.7208 3
    endloop
  endfacet
  facet normal 0 0 1
    outer loop
      vertex -11.25 -19.4856 3
      vertex -16.25 -28.1458 3
      vertex -10.0431 -30.9093 3
    endloop
  endfacet
  facet normal 0 0 1
    outer loop
      vertex -21.7467 -24.1522 3
      vertex -15.0554 -16.7208 3
      vertex -18.2029 -13.2252 3
    endloop
  endfacet
  facet normal 0 0 1
    outer loop
      vertex -26.2931 -19.103 3
      vertex -18.2029 -13.2252 3
      vertex -20.5548 -9.15157 3
    endloop
  endfacet
  facet normal 0 0 1
    outer loop
      vertex -15.0554 -16.7208 3
      vertex -21.7467 -24.1522 3
      vertex -16.25 -28.1458 3
    endloop
  endfacet
  facet normal 0 0 1
    outer loop
      vertex -29.6902 -13.2189 3
      vertex -20.5548 -9.15157 3
      vertex -22.0083 -4.67801 3
    endloop
  endfacet
  facet normal 0 0 1
    outer loop
      vertex -31.7898 -6.75713 3
      vertex -22.0083 -4.67801 3
      vertex -22.5 0 3
    endloop
  endfacet
  facet normal -0 0 1
    outer loop
      vertex -31.7898 6.75713 3
      vertex -22.0083 4.67801 3
      vertex -29.6902 13.2189 3
    endloop
  endfacet
  facet normal 0 0 1
    outer loop
      vertex -18.2029 -13.2252 3
      vertex -26.2931 -19.103 3
      vertex -21.7467 -24.1522 3
    endloop
  endfacet
  facet normal 0 0 1
    outer loop
      vertex -22.0083 4.67801 3
      vertex -31.7898 6.75713 3
      vertex -22.5 0 3
    endloop
  endfacet
  facet normal 0 0 1
    outer loop
      vertex -20.5548 -9.15157 3
      vertex -29.6902 -13.2189 3
      vertex -26.2931 -19.103 3
    endloop
  endfacet
  facet normal 0 0 1
    outer loop
      vertex -32.5 0 3
      vertex -22.5 0 3
      vertex -31.7898 6.75713 3
    endloop
  endfacet
  facet normal 0 0 1
    outer loop
      vertex -22.0083 -4.67801 3
      vertex -31.7898 -6.75713 3
      vertex -29.6902 -13.2189 3
    endloop
  endfacet
  facet normal 0 0 1
    outer loop
      vertex -22.5 0 3
      vertex -32.5 0 3
      vertex -31.7898 -6.75713 3
    endloop
  endfacet
  facet normal -0.406737 0.913545 0
    outer loop
      vertex -10.0431 30.9093 0
      vertex -16.25 28.1458 3
      vertex -10.0431 30.9093 3
    endloop
  endfacet
  facet normal -0.406737 0.913545 0
    outer loop
      vertex -16.25 28.1458 3
      vertex -10.0431 30.9093 0
      vertex -16.25 28.1458 0
    endloop
  endfacet
  facet normal -0.866025 -0.5 0
    outer loop
      vertex -26.2931 -19.103 0
      vertex -29.6902 -13.2189 3
      vertex -29.6902 -13.2189 0
    endloop
  endfacet
  facet normal -0.866025 -0.5 0
    outer loop
      vertex -29.6902 -13.2189 3
      vertex -26.2931 -19.103 0
      vertex -26.2931 -19.103 3
    endloop
  endfacet
  facet normal 0.951057 -0.309017 0
    outer loop
      vertex 29.6902 -13.2189 3
      vertex 31.7898 -6.75713 0
      vertex 31.7898 -6.75713 3
    endloop
  endfacet
  facet normal 0.951057 -0.309017 0
    outer loop
      vertex 31.7898 -6.75713 0
      vertex 29.6902 -13.2189 3
      vertex 29.6902 -13.2189 0
    endloop
  endfacet
  facet normal 0.866025 0.5 0
    outer loop
      vertex 29.6902 13.2189 3
      vertex 26.2931 19.103 0
      vertex 26.2931 19.103 3
    endloop
  endfacet
  facet normal 0.866025 0.5 0
    outer loop
      vertex 26.2931 19.103 0
      vertex 29.6902 13.2189 3
      vertex 29.6902 13.2189 0
    endloop
  endfacet
  facet normal 0.951057 0.309017 0
    outer loop
      vertex 31.7898 6.75713 3
      vertex 29.6902 13.2189 0
      vertex 29.6902 13.2189 3
    endloop
  endfacet
  facet normal 0.951057 0.309017 0
    outer loop
      vertex 29.6902 13.2189 0
      vertex 31.7898 6.75713 3
      vertex 31.7898 6.75713 0
    endloop
  endfacet
  facet normal 0.743145 0.669131 0
    outer loop
      vertex 26.2931 19.103 3
      vertex 21.7467 24.1522 0
      vertex 21.7467 24.1522 3
    endloop
  endfacet
  facet normal 0.743145 0.669131 0
    outer loop
      vertex 21.7467 24.1522 0
      vertex 26.2931 19.103 3
      vertex 26.2931 19.103 0
    endloop
  endfacet
  facet normal 0.207912 0.978148 -0
    outer loop
      vertex 10.0431 30.9093 0
      vertex 3.39717 32.322 3
      vertex 10.0431 30.9093 3
    endloop
  endfacet
  facet normal 0.207912 0.978148 0
    outer loop
      vertex 3.39717 32.322 3
      vertex 10.0431 30.9093 0
      vertex 3.39717 32.322 0
    endloop
  endfacet
  facet normal 0.406737 0.913545 -0
    outer loop
      vertex 16.25 28.1458 0
      vertex 10.0431 30.9093 3
      vertex 16.25 28.1458 3
    endloop
  endfacet
  facet normal 0.406737 0.913545 0
    outer loop
      vertex 10.0431 30.9093 3
      vertex 16.25 28.1458 0
      vertex 10.0431 30.9093 0
    endloop
  endfacet
  facet normal -0.866025 0.5 0
    outer loop
      vertex -29.6902 13.2189 0
      vertex -26.2931 19.103 3
      vertex -26.2931 19.103 0
    endloop
  endfacet
  facet normal -0.866025 0.5 0
    outer loop
      vertex -26.2931 19.103 3
      vertex -29.6902 13.2189 0
      vertex -29.6902 13.2189 3
    endloop
  endfacet
  facet normal -0.951057 0.309017 0
    outer loop
      vertex -31.7898 6.75713 0
      vertex -29.6902 13.2189 3
      vertex -29.6902 13.2189 0
    endloop
  endfacet
  facet normal -0.951057 0.309017 0
    outer loop
      vertex -29.6902 13.2189 3
      vertex -31.7898 6.75713 0
      vertex -31.7898 6.75713 3
    endloop
  endfacet
  facet normal -0.587785 0.809017 0
    outer loop
      vertex -16.25 28.1458 0
      vertex -21.7467 24.1522 3
      vertex -16.25 28.1458 3
    endloop
  endfacet
  facet normal -0.587785 0.809017 0
    outer loop
      vertex -21.7467 24.1522 3
      vertex -16.25 28.1458 0
      vertex -21.7467 24.1522 0
    endloop
  endfacet
  facet normal -0.207912 0.978148 0
    outer loop
      vertex -3.39717 32.322 0
      vertex -10.0431 30.9093 3
      vertex -3.39717 32.322 3
    endloop
  endfacet
  facet normal -0.207912 0.978148 0
    outer loop
      vertex -10.0431 30.9093 3
      vertex -3.39717 32.322 0
      vertex -10.0431 30.9093 0
    endloop
  endfacet
  facet normal 0.994522 -0.104528 0
    outer loop
      vertex 31.7898 -6.75713 3
      vertex 32.5 0 0
      vertex 32.5 0 3
    endloop
  endfacet
  facet normal 0.994522 -0.104528 0
    outer loop
      vertex 32.5 0 0
      vertex 31.7898 -6.75713 3
      vertex 31.7898 -6.75713 0
    endloop
  endfacet
  facet normal 0.866025 -0.5 0
    outer loop
      vertex 26.2931 -19.103 3
      vertex 29.6902 -13.2189 0
      vertex 29.6902 -13.2189 3
    endloop
  endfacet
  facet normal 0.866025 -0.5 0
    outer loop
      vertex 29.6902 -13.2189 0
      vertex 26.2931 -19.103 3
      vertex 26.2931 -19.103 0
    endloop
  endfacet
  facet normal 0 0 -1
    outer loop
      vertex 19.5 0 0
      vertex 32.5 0 0
      vertex 31.7898 -6.75713 0
    endloop
  endfacet
  facet normal 0 0 -1
    outer loop
      vertex 19.0739 -4.05428 0
      vertex 31.7898 -6.75713 0
      vertex 29.6902 -13.2189 0
    endloop
  endfacet
  facet normal 0 0 -1
    outer loop
      vertex 32.5 0 0
      vertex 19.5 0 0
      vertex 31.7898 6.75713 0
    endloop
  endfacet
  facet normal 0 0 -1
    outer loop
      vertex 17.8141 -7.93136 0
      vertex 29.6902 -13.2189 0
      vertex 26.2931 -19.103 0
    endloop
  endfacet
  facet normal 0 0 -1
    outer loop
      vertex 19.0739 4.05428 0
      vertex 31.7898 6.75713 0
      vertex 19.5 0 0
    endloop
  endfacet
  facet normal 0 0 -1
    outer loop
      vertex 15.7758 -11.4618 0
      vertex 26.2931 -19.103 0
      vertex 21.7467 -24.1522 0
    endloop
  endfacet
  facet normal -0 0 -1
    outer loop
      vertex 31.7898 6.75713 0
      vertex 19.0739 4.05428 0
      vertex 29.6902 13.2189 0
    endloop
  endfacet
  facet normal 0 0 -1
    outer loop
      vertex 17.8141 7.93136 0
      vertex 29.6902 13.2189 0
      vertex 19.0739 4.05428 0
    endloop
  endfacet
  facet normal 0 0 -1
    outer loop
      vertex 31.7898 -6.75713 0
      vertex 19.0739 -4.05428 0
      vertex 19.5 0 0
    endloop
  endfacet
  facet normal 0 0 -1
    outer loop
      vertex 29.6902 -13.2189 0
      vertex 17.8141 -7.93136 0
      vertex 19.0739 -4.05428 0
    endloop
  endfacet
  facet normal 0 0 -1
    outer loop
      vertex 13.048 -14.4913 0
      vertex 21.7467 -24.1522 0
      vertex 16.25 -28.1458 0
    endloop
  endfacet
  facet normal 0 0 -1
    outer loop
      vertex 26.2931 -19.103 0
      vertex 15.7758 -11.4618 0
      vertex 17.8141 -7.93136 0
    endloop
  endfacet
  facet normal 0 0 -1
    outer loop
      vertex 21.7467 -24.1522 0
      vertex 13.048 -14.4913 0
      vertex 15.7758 -11.4618 0
    endloop
  endfacet
  facet normal 0 0 -1
    outer loop
      vertex 9.75 -16.8875 0
      vertex 16.25 -28.1458 0
      vertex 10.0431 -30.9093 0
    endloop
  endfacet
  facet normal 0 0 -1
    outer loop
      vertex 16.25 -28.1458 0
      vertex 9.75 -16.8875 0
      vertex 13.048 -14.4913 0
    endloop
  endfacet
  facet normal 0 0 -1
    outer loop
      vertex 10.0431 -30.9093 0
      vertex 6.02583 -18.5456 0
      vertex 9.75 -16.8875 0
    endloop
  endfacet
  facet normal 0 0 -1
    outer loop
      vertex 3.39717 -32.322 0
      vertex 6.02583 -18.5456 0
      vertex 10.0431 -30.9093 0
    endloop
  endfacet
  facet normal 0 0 -1
    outer loop
      vertex 3.39717 -32.322 0
      vertex 2.0383 -19.3932 0
      vertex 6.02583 -18.5456 0
    endloop
  endfacet
  facet normal 0 0 -1
    outer loop
      vertex 3.39717 -32.322 0
      vertex -2.0383 -19.3932 0
      vertex 2.0383 -19.3932 0
    endloop
  endfacet
  facet normal 0 0 -1
    outer loop
      vertex -3.39717 -32.322 0
      vertex -2.0383 -19.3932 0
      vertex 3.39717 -32.322 0
    endloop
  endfacet
  facet normal 0 0 -1
    outer loop
      vertex -3.39717 -32.322 0
      vertex -6.02583 -18.5456 0
      vertex -2.0383 -19.3932 0
    endloop
  endfacet
  facet normal 0 0 -1
    outer loop
      vertex -10.0431 -30.9093 0
      vertex -6.02583 -18.5456 0
      vertex -3.39717 -32.322 0
    endloop
  endfacet
  facet normal -0 0 -1
    outer loop
      vertex -6.02583 -18.5456 0
      vertex -10.0431 -30.9093 0
      vertex -9.75 -16.8875 0
    endloop
  endfacet
  facet normal 0 0 -1
    outer loop
      vertex -16.25 -28.1458 0
      vertex -9.75 -16.8875 0
      vertex -10.0431 -30.9093 0
    endloop
  endfacet
  facet normal -0 0 -1
    outer loop
      vertex -9.75 -16.8875 0
      vertex -16.25 -28.1458 0
      vertex -13.048 -14.4913 0
    endloop
  endfacet
  facet normal 0 0 -1
    outer loop
      vertex -21.7467 -24.1522 0
      vertex -13.048 -14.4913 0
      vertex -16.25 -28.1458 0
    endloop
  endfacet
  facet normal -0 0 -1
    outer loop
      vertex -13.048 -14.4913 0
      vertex -21.7467 -24.1522 0
      vertex -15.7758 -11.4618 0
    endloop
  endfacet
  facet normal 0 0 -1
    outer loop
      vertex -26.2931 -19.103 0
      vertex -15.7758 -11.4618 0
      vertex -21.7467 -24.1522 0
    endloop
  endfacet
  facet normal 0 0 -1
    outer loop
      vertex -29.6902 -13.2189 0
      vertex -17.8141 -7.93136 0
      vertex -26.2931 -19.103 0
    endloop
  endfacet
  facet normal -0 0 -1
    outer loop
      vertex -15.7758 -11.4618 0
      vertex -26.2931 -19.103 0
      vertex -17.8141 -7.93136 0
    endloop
  endfacet
  facet normal -0 0 -1
    outer loop
      vertex 29.6902 13.2189 0
      vertex 17.8141 7.93136 0
      vertex 26.2931 19.103 0
    endloop
  endfacet
  facet normal 0 0 -1
    outer loop
      vertex 15.7758 11.4618 0
      vertex 26.2931 19.103 0
      vertex 17.8141 7.93136 0
    endloop
  endfacet
  facet normal -0 0 -1
    outer loop
      vertex 26.2931 19.103 0
      vertex 15.7758 11.4618 0
      vertex 21.7467 24.1522 0
    endloop
  endfacet
  facet normal 0 0 -1
    outer loop
      vertex 13.048 14.4913 0
      vertex 21.7467 24.1522 0
      vertex 15.7758 11.4618 0
    endloop
  endfacet
  facet normal -0 0 -1
    outer loop
      vertex 21.7467 24.1522 0
      vertex 13.048 14.4913 0
      vertex 16.25 28.1458 0
    endloop
  endfacet
  facet normal 0 0 -1
    outer loop
      vertex 9.75 16.8875 0
      vertex 16.25 28.1458 0
      vertex 13.048 14.4913 0
    endloop
  endfacet
  facet normal -0 0 -1
    outer loop
      vertex 16.25 28.1458 0
      vertex 9.75 16.8875 0
      vertex 10.0431 30.9093 0
    endloop
  endfacet
  facet normal 0 0 -1
    outer loop
      vertex 6.02583 18.5456 0
      vertex 10.0431 30.9093 0
      vertex 9.75 16.8875 0
    endloop
  endfacet
  facet normal 0 0 -1
    outer loop
      vertex 6.02583 18.5456 0
      vertex 3.39717 32.322 0
      vertex 10.0431 30.9093 0
    endloop
  endfacet
  facet normal 0 0 -1
    outer loop
      vertex 2.0383 19.3932 0
      vertex 3.39717 32.322 0
      vertex 6.02583 18.5456 0
    endloop
  endfacet
  facet normal 0 0 -1
    outer loop
      vertex -2.0383 19.3932 0
      vertex 3.39717 32.322 0
      vertex 2.0383 19.3932 0
    endloop
  endfacet
  facet normal 0 0 -1
    outer loop
      vertex -2.0383 19.3932 0
      vertex -3.39717 32.322 0
      vertex 3.39717 32.322 0
    endloop
  endfacet
  facet normal 0 0 -1
    outer loop
      vertex -6.02583 18.5456 0
      vertex -3.39717 32.322 0
      vertex -2.0383 19.3932 0
    endloop
  endfacet
  facet normal 0 0 -1
    outer loop
      vertex -10.0431 30.9093 0
      vertex -6.02583 18.5456 0
      vertex -9.75 16.8875 0
    endloop
  endfacet
  facet normal 0 0 -1
    outer loop
      vertex -6.02583 18.5456 0
      vertex -10.0431 30.9093 0
      vertex -3.39717 32.322 0
    endloop
  endfacet
  facet normal 0 0 -1
    outer loop
      vertex -16.25 28.1458 0
      vertex -9.75 16.8875 0
      vertex -13.048 14.4913 0
    endloop
  endfacet
  facet normal 0 0 -1
    outer loop
      vertex -21.7467 24.1522 0
      vertex -13.048 14.4913 0
      vertex -15.7758 11.4618 0
    endloop
  endfacet
  facet normal 0 0 -1
    outer loop
      vertex -9.75 16.8875 0
      vertex -16.25 28.1458 0
      vertex -10.0431 30.9093 0
    endloop
  endfacet
  facet normal 0 0 -1
    outer loop
      vertex -26.2931 19.103 0
      vertex -15.7758 11.4618 0
      vertex -17.8141 7.93136 0
    endloop
  endfacet
  facet normal 0 0 -1
    outer loop
      vertex -29.6902 13.2189 0
      vertex -17.8141 7.93136 0
      vertex -19.0739 4.05428 0
    endloop
  endfacet
  facet normal 0 0 -1
    outer loop
      vertex -13.048 14.4913 0
      vertex -21.7467 24.1522 0
      vertex -16.25 28.1458 0
    endloop
  endfacet
  facet normal 0 0 -1
    outer loop
      vertex -31.7898 6.75713 0
      vertex -19.0739 4.05428 0
      vertex -19.5 0 0
    endloop
  endfacet
  facet normal -0 0 -1
    outer loop
      vertex -17.8141 -7.93136 0
      vertex -29.6902 -13.2189 0
      vertex -19.0739 -4.05428 0
    endloop
  endfacet
  facet normal 0 0 -1
    outer loop
      vertex -31.7898 -6.75713 0
      vertex -19.0739 -4.05428 0
      vertex -29.6902 -13.2189 0
    endloop
  endfacet
  facet normal 0 0 -1
    outer loop
      vertex -15.7758 11.4618 0
      vertex -26.2931 19.103 0
      vertex -21.7467 24.1522 0
    endloop
  endfacet
  facet normal -0 0 -1
    outer loop
      vertex -19.0739 -4.05428 0
      vertex -31.7898 -6.75713 0
      vertex -19.5 0 0
    endloop
  endfacet
  facet normal 0 0 -1
    outer loop
      vertex -17.8141 7.93136 0
      vertex -29.6902 13.2189 0
      vertex -26.2931 19.103 0
    endloop
  endfacet
  facet normal 0 0 -1
    outer loop
      vertex -32.5 0 0
      vertex -19.5 0 0
      vertex -31.7898 -6.75713 0
    endloop
  endfacet
  facet normal 0 0 -1
    outer loop
      vertex -19.0739 4.05428 0
      vertex -31.7898 6.75713 0
      vertex -29.6902 13.2189 0
    endloop
  endfacet
  facet normal 0 0 -1
    outer loop
      vertex -19.5 0 0
      vertex -32.5 0 0
      vertex -31.7898 6.75713 0
    endloop
  endfacet
  facet normal 0.587785 -0.809017 0
    outer loop
      vertex 16.25 -28.1458 0
      vertex 21.7467 -24.1522 3
      vertex 16.25 -28.1458 3
    endloop
  endfacet
  facet normal 0.587785 -0.809017 0
    outer loop
      vertex 21.7467 -24.1522 3
      vertex 16.25 -28.1458 0
      vertex 21.7467 -24.1522 0
    endloop
  endfacet
  facet normal -0.207912 -0.978148 0
    outer loop
      vertex -10.0431 -30.9093 0
      vertex -3.39717 -32.322 3
      vertex -10.0431 -30.9093 3
    endloop
  endfacet
  facet normal -0.207912 -0.978148 -0
    outer loop
      vertex -3.39717 -32.322 3
      vertex -10.0431 -30.9093 0
      vertex -3.39717 -32.322 0
    endloop
  endfacet
  facet normal -0.743145 -0.669131 0
    outer loop
      vertex -21.7467 -24.1522 0
      vertex -26.2931 -19.103 3
      vertex -26.2931 -19.103 0
    endloop
  endfacet
  facet normal -0.743145 -0.669131 0
    outer loop
      vertex -26.2931 -19.103 3
      vertex -21.7467 -24.1522 0
      vertex -21.7467 -24.1522 3
    endloop
  endfacet
  facet normal -0.951057 -0.309017 0
    outer loop
      vertex -29.6902 -13.2189 0
      vertex -31.7898 -6.75713 3
      vertex -31.7898 -6.75713 0
    endloop
  endfacet
  facet normal -0.951057 -0.309017 0
    outer loop
      vertex -31.7898 -6.75713 3
      vertex -29.6902 -13.2189 0
      vertex -29.6902 -13.2189 3
    endloop
  endfacet
  facet normal -0.994522 -0.104528 0
    outer loop
      vertex -31.7898 -6.75713 0
      vertex -32.5 0 3
      vertex -32.5 0 0
    endloop
  endfacet
  facet normal -0.994522 -0.104528 0
    outer loop
      vertex -32.5 0 3
      vertex -31.7898 -6.75713 0
      vertex -31.7898 -6.75713 3
    endloop
  endfacet
  facet normal 0.406737 -0.913545 0
    outer loop
      vertex 10.0431 -30.9093 0
      vertex 16.25 -28.1458 3
      vertex 10.0431 -30.9093 3
    endloop
  endfacet
  facet normal 0.406737 -0.913545 0
    outer loop
      vertex 16.25 -28.1458 3
      vertex 10.0431 -30.9093 0
      vertex 16.25 -28.1458 0
    endloop
  endfacet
  facet normal 0.207912 -0.978148 0
    outer loop
      vertex 3.39717 -32.322 0
      vertex 10.0431 -30.9093 3
      vertex 3.39717 -32.322 3
    endloop
  endfacet
  facet normal 0.207912 -0.978148 0
    outer loop
      vertex 10.0431 -30.9093 3
      vertex 3.39717 -32.322 0
      vertex 10.0431 -30.9093 0
    endloop
  endfacet
  facet normal 0.743145 -0.669131 0
    outer loop
      vertex 21.7467 -24.1522 3
      vertex 26.2931 -19.103 0
      vertex 26.2931 -19.103 3
    endloop
  endfacet
  facet normal 0.743145 -0.669131 0
    outer loop
      vertex 26.2931 -19.103 0
      vertex 21.7467 -24.1522 3
      vertex 21.7467 -24.1522 0
    endloop
  endfacet
  facet normal -0.406737 -0.913545 0
    outer loop
      vertex -16.25 -28.1458 0
      vertex -10.0431 -30.9093 3
      vertex -16.25 -28.1458 3
    endloop
  endfacet
  facet normal -0.406737 -0.913545 -0
    outer loop
      vertex -10.0431 -30.9093 3
      vertex -16.25 -28.1458 0
      vertex -10.0431 -30.9093 0
    endloop
  endfacet
  facet normal -0.587785 -0.809017 0
    outer loop
      vertex -21.7467 -24.1522 0
      vertex -16.25 -28.1458 3
      vertex -21.7467 -24.1522 3
    endloop
  endfacet
  facet normal -0.587785 -0.809017 -0
    outer loop
      vertex -16.25 -28.1458 3
      vertex -21.7467 -24.1522 0
      vertex -16.25 -28.1458 0
    endloop
  endfacet
  facet normal 0.994522 0.104529 0
    outer loop
      vertex 22.5 0 60
      vertex 22.0083 4.67801 3
      vertex 22.0083 4.67801 60
    endloop
  endfacet
  facet normal 0.994522 0.104529 0
    outer loop
      vertex 22.0083 4.67801 3
      vertex 22.5 0 60
      vertex 22.5 0 3
    endloop
  endfacet
  facet normal -0.994522 0.104529 0
    outer loop
      vertex -22.5 0 3
      vertex -22.0083 4.67801 60
      vertex -22.0083 4.67801 3
    endloop
  endfacet
  facet normal -0.994522 0.104529 0
    outer loop
      vertex -22.0083 4.67801 60
      vertex -22.5 0 3
      vertex -22.5 0 60
    endloop
  endfacet
  facet normal 0 1 -0
    outer loop
      vertex 2.35189 22.3767 3
      vertex -2.35189 22.3767 60
      vertex 2.35189 22.3767 60
    endloop
  endfacet
  facet normal 0 1 0
    outer loop
      vertex -2.35189 22.3767 60
      vertex 2.35189 22.3767 3
      vertex -2.35189 22.3767 3
    endloop
  endfacet
  facet normal 0 -1 0
    outer loop
      vertex -2.35189 -22.3767 3
      vertex 2.35189 -22.3767 60
      vertex -2.35189 -22.3767 60
    endloop
  endfacet
  facet normal 0 -1 -0
    outer loop
      vertex 2.35189 -22.3767 60
      vertex -2.35189 -22.3767 3
      vertex 2.35189 -22.3767 3
    endloop
  endfacet
  facet normal 0.743145 0.66913 0
    outer loop
      vertex 18.2029 13.2252 60
      vertex 15.0554 16.7208 3
      vertex 15.0554 16.7208 60
    endloop
  endfacet
  facet normal 0.743145 0.66913 0
    outer loop
      vertex 15.0554 16.7208 3
      vertex 18.2029 13.2252 60
      vertex 18.2029 13.2252 3
    endloop
  endfacet
  facet normal 0.951057 0.309017 0
    outer loop
      vertex 22.0083 4.67801 60
      vertex 20.5548 9.15157 3
      vertex 20.5548 9.15157 60
    endloop
  endfacet
  facet normal 0.951057 0.309017 0
    outer loop
      vertex 20.5548 9.15157 3
      vertex 22.0083 4.67801 60
      vertex 22.0083 4.67801 3
    endloop
  endfacet
  facet normal -0.587785 0.809017 0
    outer loop
      vertex -11.25 19.4856 3
      vertex -15.0554 16.7208 60
      vertex -11.25 19.4856 60
    endloop
  endfacet
  facet normal -0.587785 0.809017 0
    outer loop
      vertex -15.0554 16.7208 60
      vertex -11.25 19.4856 3
      vertex -15.0554 16.7208 3
    endloop
  endfacet
  facet normal -0.207912 0.978148 0
    outer loop
      vertex -2.35189 22.3767 3
      vertex -6.95288 21.3988 60
      vertex -2.35189 22.3767 60
    endloop
  endfacet
  facet normal -0.207912 0.978148 0
    outer loop
      vertex -6.95288 21.3988 60
      vertex -2.35189 22.3767 3
      vertex -6.95288 21.3988 3
    endloop
  endfacet
  facet normal 0.866025 0.5 0
    outer loop
      vertex 20.5548 9.15157 60
      vertex 18.2029 13.2252 3
      vertex 18.2029 13.2252 60
    endloop
  endfacet
  facet normal 0.866025 0.5 0
    outer loop
      vertex 18.2029 13.2252 3
      vertex 20.5548 9.15157 60
      vertex 20.5548 9.15157 3
    endloop
  endfacet
  facet normal 0.406737 0.913545 -0
    outer loop
      vertex 11.25 19.4856 3
      vertex 6.95288 21.3988 60
      vertex 11.25 19.4856 60
    endloop
  endfacet
  facet normal 0.406737 0.913545 0
    outer loop
      vertex 6.95288 21.3988 60
      vertex 11.25 19.4856 3
      vertex 6.95288 21.3988 3
    endloop
  endfacet
  facet normal 0.207912 0.978148 -0
    outer loop
      vertex 6.95288 21.3988 3
      vertex 2.35189 22.3767 60
      vertex 6.95288 21.3988 60
    endloop
  endfacet
  facet normal 0.207912 0.978148 0
    outer loop
      vertex 2.35189 22.3767 60
      vertex 6.95288 21.3988 3
      vertex 2.35189 22.3767 3
    endloop
  endfacet
  facet normal 0.587785 0.809017 -0
    outer loop
      vertex 15.0554 16.7208 3
      vertex 11.25 19.4856 60
      vertex 15.0554 16.7208 60
    endloop
  endfacet
  facet normal 0.587785 0.809017 0
    outer loop
      vertex 11.25 19.4856 60
      vertex 15.0554 16.7208 3
      vertex 11.25 19.4856 3
    endloop
  endfacet
  facet normal -0.866025 0.5 0
    outer loop
      vertex -20.5548 9.15157 3
      vertex -18.2029 13.2252 60
      vertex -18.2029 13.2252 3
    endloop
  endfacet
  facet normal -0.866025 0.5 0
    outer loop
      vertex -18.2029 13.2252 60
      vertex -20.5548 9.15157 3
      vertex -20.5548 9.15157 60
    endloop
  endfacet
  facet normal -0.743145 0.66913 0
    outer loop
      vertex -18.2029 13.2252 3
      vertex -15.0554 16.7208 60
      vertex -15.0554 16.7208 3
    endloop
  endfacet
  facet normal -0.743145 0.66913 0
    outer loop
      vertex -15.0554 16.7208 60
      vertex -18.2029 13.2252 3
      vertex -18.2029 13.2252 60
    endloop
  endfacet
  facet normal -0.951057 0.309017 0
    outer loop
      vertex -22.0083 4.67801 3
      vertex -20.5548 9.15157 60
      vertex -20.5548 9.15157 3
    endloop
  endfacet
  facet normal -0.951057 0.309017 0
    outer loop
      vertex -20.5548 9.15157 60
      vertex -22.0083 4.67801 3
      vertex -22.0083 4.67801 60
    endloop
  endfacet
  facet normal 0 0 1
    outer loop
      vertex 22.0083 4.67801 60
      vertex 22.0083 -4.67801 60
      vertex 22.5 0 60
    endloop
  endfacet
  facet normal 0 0 1
    outer loop
      vertex 20.5548 9.15157 60
      vertex 22.0083 -4.67801 60
      vertex 22.0083 4.67801 60
    endloop
  endfacet
  facet normal 0 0 1
    outer loop
      vertex 20.5548 9.15157 60
      vertex 20.5548 -9.15157 60
      vertex 22.0083 -4.67801 60
    endloop
  endfacet
  facet normal 0 0 1
    outer loop
      vertex 18.2029 13.2252 60
      vertex 20.5548 -9.15157 60
      vertex 20.5548 9.15157 60
    endloop
  endfacet
  facet normal 0 0 1
    outer loop
      vertex 18.2029 13.2252 60
      vertex 18.2029 -13.2252 60
      vertex 20.5548 -9.15157 60
    endloop
  endfacet
  facet normal 0 0 1
    outer loop
      vertex 15.0554 16.7208 60
      vertex 18.2029 -13.2252 60
      vertex 18.2029 13.2252 60
    endloop
  endfacet
  facet normal 0 0 1
    outer loop
      vertex 15.0554 16.7208 60
      vertex 15.0554 -16.7208 60
      vertex 18.2029 -13.2252 60
    endloop
  endfacet
  facet normal 0 0 1
    outer loop
      vertex 11.25 19.4856 60
      vertex 15.0554 -16.7208 60
      vertex 15.0554 16.7208 60
    endloop
  endfacet
  facet normal 0 0 1
    outer loop
      vertex 11.25 19.4856 60
      vertex 11.25 -19.4856 60
      vertex 15.0554 -16.7208 60
    endloop
  endfacet
  facet normal 0 0 1
    outer loop
      vertex 6.95288 21.3988 60
      vertex 11.25 -19.4856 60
      vertex 11.25 19.4856 60
    endloop
  endfacet
  facet normal 0 0 1
    outer loop
      vertex 6.95288 21.3988 60
      vertex 6.95288 -21.3988 60
      vertex 11.25 -19.4856 60
    endloop
  endfacet
  facet normal 0 0 1
    outer loop
      vertex 2.35189 22.3767 60
      vertex 6.95288 -21.3988 60
      vertex 6.95288 21.3988 60
    endloop
  endfacet
  facet normal 0 0 1
    outer loop
      vertex 2.35189 22.3767 60
      vertex 2.35189 -22.3767 60
      vertex 6.95288 -21.3988 60
    endloop
  endfacet
  facet normal -0 0 1
    outer loop
      vertex -2.35189 22.3767 60
      vertex 2.35189 -22.3767 60
      vertex 2.35189 22.3767 60
    endloop
  endfacet
  facet normal 0 0 1
    outer loop
      vertex -2.35189 22.3767 60
      vertex -2.35189 -22.3767 60
      vertex 2.35189 -22.3767 60
    endloop
  endfacet
  facet normal -0 0 1
    outer loop
      vertex -6.95288 21.3988 60
      vertex -2.35189 -22.3767 60
      vertex -2.35189 22.3767 60
    endloop
  endfacet
  facet normal 0 0 1
    outer loop
      vertex -6.95288 21.3988 60
      vertex -6.95288 -21.3988 60
      vertex -2.35189 -22.3767 60
    endloop
  endfacet
  facet normal -0 0 1
    outer loop
      vertex -11.25 19.4856 60
      vertex -6.95288 -21.3988 60
      vertex -6.95288 21.3988 60
    endloop
  endfacet
  facet normal 0 0 1
    outer loop
      vertex -11.25 19.4856 60
      vertex -11.25 -19.4856 60
      vertex -6.95288 -21.3988 60
    endloop
  endfacet
  facet normal -0 0 1
    outer loop
      vertex -15.0554 16.7208 60
      vertex -11.25 -19.4856 60
      vertex -11.25 19.4856 60
    endloop
  endfacet
  facet normal 0 0 1
    outer loop
      vertex -15.0554 16.7208 60
      vertex -15.0554 -16.7208 60
      vertex -11.25 -19.4856 60
    endloop
  endfacet
  facet normal -0 0 1
    outer loop
      vertex -18.2029 13.2252 60
      vertex -15.0554 -16.7208 60
      vertex -15.0554 16.7208 60
    endloop
  endfacet
  facet normal 0 0 1
    outer loop
      vertex -18.2029 13.2252 60
      vertex -18.2029 -13.2252 60
      vertex -15.0554 -16.7208 60
    endloop
  endfacet
  facet normal -0 0 1
    outer loop
      vertex -20.5548 9.15157 60
      vertex -18.2029 -13.2252 60
      vertex -18.2029 13.2252 60
    endloop
  endfacet
  facet normal 0 0 1
    outer loop
      vertex -20.5548 9.15157 60
      vertex -20.5548 -9.15157 60
      vertex -18.2029 -13.2252 60
    endloop
  endfacet
  facet normal -0 0 1
    outer loop
      vertex -22.0083 4.67801 60
      vertex -20.5548 -9.15157 60
      vertex -20.5548 9.15157 60
    endloop
  endfacet
  facet normal 0 0 1
    outer loop
      vertex -22.0083 4.67801 60
      vertex -22.0083 -4.67801 60
      vertex -20.5548 -9.15157 60
    endloop
  endfacet
  facet normal 0 -0 1
    outer loop
      vertex -22.0083 -4.67801 60
      vertex -22.0083 4.67801 60
      vertex -22.5 0 60
    endloop
  endfacet
  facet normal -0.406737 0.913545 0
    outer loop
      vertex -6.95288 21.3988 3
      vertex -11.25 19.4856 60
      vertex -6.95288 21.3988 60
    endloop
  endfacet
  facet normal -0.406737 0.913545 0
    outer loop
      vertex -11.25 19.4856 60
      vertex -6.95288 21.3988 3
      vertex -11.25 19.4856 3
    endloop
  endfacet
  facet normal 0.994522 -0.104529 0
    outer loop
      vertex 22.0083 -4.67801 60
      vertex 22.5 0 3
      vertex 22.5 0 60
    endloop
  endfacet
  facet normal 0.994522 -0.104529 0
    outer loop
      vertex 22.5 0 3
      vertex 22.0083 -4.67801 60
      vertex 22.0083 -4.67801 3
    endloop
  endfacet
  facet normal 0.207912 -0.978148 0
    outer loop
      vertex 2.35189 -22.3767 3
      vertex 6.95288 -21.3988 60
      vertex 2.35189 -22.3767 60
    endloop
  endfacet
  facet normal 0.207912 -0.978148 0
    outer loop
      vertex 6.95288 -21.3988 60
      vertex 2.35189 -22.3767 3
      vertex 6.95288 -21.3988 3
    endloop
  endfacet
  facet normal 0.743145 -0.66913 0
    outer loop
      vertex 15.0554 -16.7208 60
      vertex 18.2029 -13.2252 3
      vertex 18.2029 -13.2252 60
    endloop
  endfacet
  facet normal 0.743145 -0.66913 0
    outer loop
      vertex 18.2029 -13.2252 3
      vertex 15.0554 -16.7208 60
      vertex 15.0554 -16.7208 3
    endloop
  endfacet
  facet normal 0.951057 -0.309017 0
    outer loop
      vertex 20.5548 -9.15157 60
      vertex 22.0083 -4.67801 3
      vertex 22.0083 -4.67801 60
    endloop
  endfacet
  facet normal 0.951057 -0.309017 0
    outer loop
      vertex 22.0083 -4.67801 3
      vertex 20.5548 -9.15157 60
      vertex 20.5548 -9.15157 3
    endloop
  endfacet
  facet normal 0.866025 -0.5 0
    outer loop
      vertex 18.2029 -13.2252 60
      vertex 20.5548 -9.15157 3
      vertex 20.5548 -9.15157 60
    endloop
  endfacet
  facet normal 0.866025 -0.5 0
    outer loop
      vertex 20.5548 -9.15157 3
      vertex 18.2029 -13.2252 60
      vertex 18.2029 -13.2252 3
    endloop
  endfacet
  facet normal -0.406737 -0.913545 0
    outer loop
      vertex -11.25 -19.4856 3
      vertex -6.95288 -21.3988 60
      vertex -11.25 -19.4856 60
    endloop
  endfacet
  facet normal -0.406737 -0.913545 -0
    outer loop
      vertex -6.95288 -21.3988 60
      vertex -11.25 -19.4856 3
      vertex -6.95288 -21.3988 3
    endloop
  endfacet
  facet normal -0.866025 -0.5 0
    outer loop
      vertex -18.2029 -13.2252 3
      vertex -20.5548 -9.15157 60
      vertex -20.5548 -9.15157 3
    endloop
  endfacet
  facet normal -0.866025 -0.5 0
    outer loop
      vertex -20.5548 -9.15157 60
      vertex -18.2029 -13.2252 3
      vertex -18.2029 -13.2252 60
    endloop
  endfacet
  facet normal 0.587785 -0.809017 0
    outer loop
      vertex 11.25 -19.4856 3
      vertex 15.0554 -16.7208 60
      vertex 11.25 -19.4856 60
    endloop
  endfacet
  facet normal 0.587785 -0.809017 0
    outer loop
      vertex 15.0554 -16.7208 60
      vertex 11.25 -19.4856 3
      vertex 15.0554 -16.7208 3
    endloop
  endfacet
  facet normal 0.406737 -0.913545 0
    outer loop
      vertex 6.95288 -21.3988 3
      vertex 11.25 -19.4856 60
      vertex 6.95288 -21.3988 60
    endloop
  endfacet
  facet normal 0.406737 -0.913545 0
    outer loop
      vertex 11.25 -19.4856 60
      vertex 6.95288 -21.3988 3
      vertex 11.25 -19.4856 3
    endloop
  endfacet
  facet normal -0.207912 -0.978148 0
    outer loop
      vertex -6.95288 -21.3988 3
      vertex -2.35189 -22.3767 60
      vertex -6.95288 -21.3988 60
    endloop
  endfacet
  facet normal -0.207912 -0.978148 -0
    outer loop
      vertex -2.35189 -22.3767 60
      vertex -6.95288 -21.3988 3
      vertex -2.35189 -22.3767 3
    endloop
  endfacet
  facet normal -0.587785 -0.809017 0
    outer loop
      vertex -15.0554 -16.7208 3
      vertex -11.25 -19.4856 60
      vertex -15.0554 -16.7208 60
    endloop
  endfacet
  facet normal -0.587785 -0.809017 -0
    outer loop
      vertex -11.25 -19.4856 60
      vertex -15.0554 -16.7208 3
      vertex -11.25 -19.4856 3
    endloop
  endfacet
  facet normal -0.743145 -0.66913 0
    outer loop
      vertex -15.0554 -16.7208 3
      vertex -18.2029 -13.2252 60
      vertex -18.2029 -13.2252 3
    endloop
  endfacet
  facet normal -0.743145 -0.66913 0
    outer loop
      vertex -18.2029 -13.2252 60
      vertex -15.0554 -16.7208 3
      vertex -15.0554 -16.7208 60
    endloop
  endfacet
  facet normal -0.951057 -0.309017 0
    outer loop
      vertex -20.5548 -9.15157 3
      vertex -22.0083 -4.67801 60
      vertex -22.0083 -4.67801 3
    endloop
  endfacet
  facet normal -0.951057 -0.309017 0
    outer loop
      vertex -22.0083 -4.67801 60
      vertex -20.5548 -9.15157 3
      vertex -20.5548 -9.15157 60
    endloop
  endfacet
  facet normal -0.994522 -0.104529 0
    outer loop
      vertex -22.0083 -4.67801 3
      vertex -22.5 0 60
      vertex -22.5 0 3
    endloop
  endfacet
  facet normal -0.994522 -0.104529 0
    outer loop
      vertex -22.5 0 60
      vertex -22.0083 -4.67801 3
      vertex -22.0083 -4.67801 60
    endloop
  endfacet
  facet normal -0.866025 -0.5 0
    outer loop
      vertex 17.8141 7.93136 0
      vertex 15.7758 11.4618 57
      vertex 15.7758 11.4618 0
    endloop
  endfacet
  facet normal -0.866025 -0.5 0
    outer loop
      vertex 15.7758 11.4618 57
      vertex 17.8141 7.93136 0
      vertex 17.8141 7.93136 57
    endloop
  endfacet
  facet normal 0.951057 -0.309017 0
    outer loop
      vertex -19.0739 4.05428 57
      vertex -17.8141 7.93136 0
      vertex -17.8141 7.93136 57
    endloop
  endfacet
  facet normal 0.951057 -0.309017 0
    outer loop
      vertex -17.8141 7.93136 0
      vertex -19.0739 4.05428 57
      vertex -19.0739 4.05428 0
    endloop
  endfacet
  facet normal -0.743145 -0.669131 0
    outer loop
      vertex 15.7758 11.4618 0
      vertex 13.048 14.4913 57
      vertex 13.048 14.4913 0
    endloop
  endfacet
  facet normal -0.743145 -0.669131 0
    outer loop
      vertex 13.048 14.4913 57
      vertex 15.7758 11.4618 0
      vertex 15.7758 11.4618 57
    endloop
  endfacet
  facet normal 0.406737 -0.913546 0
    outer loop
      vertex -9.75 16.8875 0
      vertex -6.02583 18.5456 57
      vertex -9.75 16.8875 57
    endloop
  endfacet
  facet normal 0.406737 -0.913546 0
    outer loop
      vertex -6.02583 18.5456 57
      vertex -9.75 16.8875 0
      vertex -6.02583 18.5456 0
    endloop
  endfacet
  facet normal -0.994522 0.104529 0
    outer loop
      vertex 19.0739 -4.05428 0
      vertex 19.5 0 57
      vertex 19.5 0 0
    endloop
  endfacet
  facet normal -0.994522 0.104529 0
    outer loop
      vertex 19.5 0 57
      vertex 19.0739 -4.05428 0
      vertex 19.0739 -4.05428 57
    endloop
  endfacet
  facet normal -0.587785 -0.809017 0
    outer loop
      vertex 9.75 16.8875 0
      vertex 13.048 14.4913 57
      vertex 9.75 16.8875 57
    endloop
  endfacet
  facet normal -0.587785 -0.809017 -0
    outer loop
      vertex 13.048 14.4913 57
      vertex 9.75 16.8875 0
      vertex 13.048 14.4913 0
    endloop
  endfacet
  facet normal 0 -1 0
    outer loop
      vertex -2.0383 19.3932 0
      vertex 2.0383 19.3932 57
      vertex -2.0383 19.3932 57
    endloop
  endfacet
  facet normal 0 -1 -0
    outer loop
      vertex 2.0383 19.3932 57
      vertex -2.0383 19.3932 0
      vertex 2.0383 19.3932 0
    endloop
  endfacet
  facet normal -0.406736 -0.913546 0
    outer loop
      vertex 6.02583 18.5456 0
      vertex 9.75 16.8875 57
      vertex 6.02583 18.5456 57
    endloop
  endfacet
  facet normal -0.406736 -0.913546 -0
    outer loop
      vertex 9.75 16.8875 57
      vertex 6.02583 18.5456 0
      vertex 9.75 16.8875 0
    endloop
  endfacet
  facet normal 0.994522 -0.104529 0
    outer loop
      vertex -19.5 0 57
      vertex -19.0739 4.05428 0
      vertex -19.0739 4.05428 57
    endloop
  endfacet
  facet normal 0.994522 -0.104529 0
    outer loop
      vertex -19.0739 4.05428 0
      vertex -19.5 0 57
      vertex -19.5 0 0
    endloop
  endfacet
  facet normal 0.866025 -0.5 0
    outer loop
      vertex -17.8141 7.93136 57
      vertex -15.7758 11.4618 0
      vertex -15.7758 11.4618 57
    endloop
  endfacet
  facet normal 0.866025 -0.5 0
    outer loop
      vertex -15.7758 11.4618 0
      vertex -17.8141 7.93136 57
      vertex -17.8141 7.93136 0
    endloop
  endfacet
  facet normal 0.587785 -0.809017 0
    outer loop
      vertex -13.048 14.4913 0
      vertex -9.75 16.8875 57
      vertex -13.048 14.4913 57
    endloop
  endfacet
  facet normal 0.587785 -0.809017 0
    outer loop
      vertex -9.75 16.8875 57
      vertex -13.048 14.4913 0
      vertex -9.75 16.8875 0
    endloop
  endfacet
  facet normal 0.207912 -0.978148 0
    outer loop
      vertex -6.02583 18.5456 0
      vertex -2.0383 19.3932 57
      vertex -6.02583 18.5456 57
    endloop
  endfacet
  facet normal 0.207912 -0.978148 0
    outer loop
      vertex -2.0383 19.3932 57
      vertex -6.02583 18.5456 0
      vertex -2.0383 19.3932 0
    endloop
  endfacet
  facet normal 0.743145 -0.669131 0
    outer loop
      vertex -15.7758 11.4618 57
      vertex -13.048 14.4913 0
      vertex -13.048 14.4913 57
    endloop
  endfacet
  facet normal 0.743145 -0.669131 0
    outer loop
      vertex -13.048 14.4913 0
      vertex -15.7758 11.4618 57
      vertex -15.7758 11.4618 0
    endloop
  endfacet
  facet normal -0.994522 -0.104529 0
    outer loop
      vertex 19.5 0 0
      vertex 19.0739 4.05428 57
      vertex 19.0739 4.05428 0
    endloop
  endfacet
  facet normal -0.994522 -0.104529 0
    outer loop
      vertex 19.0739 4.05428 57
      vertex 19.5 0 0
      vertex 19.5 0 57
    endloop
  endfacet
  facet normal 0.207912 0.978148 -0
    outer loop
      vertex -2.0383 -19.3932 0
      vertex -6.02583 -18.5456 57
      vertex -2.0383 -19.3932 57
    endloop
  endfacet
  facet normal 0.207912 0.978148 0
    outer loop
      vertex -6.02583 -18.5456 57
      vertex -2.0383 -19.3932 0
      vertex -6.02583 -18.5456 0
    endloop
  endfacet
  facet normal -0.587785 0.809017 0
    outer loop
      vertex 13.048 -14.4913 0
      vertex 9.75 -16.8875 57
      vertex 13.048 -14.4913 57
    endloop
  endfacet
  facet normal -0.587785 0.809017 0
    outer loop
      vertex 9.75 -16.8875 57
      vertex 13.048 -14.4913 0
      vertex 9.75 -16.8875 0
    endloop
  endfacet
  facet normal -0.951057 -0.309017 0
    outer loop
      vertex 19.0739 4.05428 0
      vertex 17.8141 7.93136 57
      vertex 17.8141 7.93136 0
    endloop
  endfacet
  facet normal -0.951057 -0.309017 0
    outer loop
      vertex 17.8141 7.93136 57
      vertex 19.0739 4.05428 0
      vertex 19.0739 4.05428 57
    endloop
  endfacet
  facet normal -0.207912 -0.978148 0
    outer loop
      vertex 2.0383 19.3932 0
      vertex 6.02583 18.5456 57
      vertex 2.0383 19.3932 57
    endloop
  endfacet
  facet normal -0.207912 -0.978148 -0
    outer loop
      vertex 6.02583 18.5456 57
      vertex 2.0383 19.3932 0
      vertex 6.02583 18.5456 0
    endloop
  endfacet
  facet normal 0 0 -1
    outer loop
      vertex 19.0739 -4.05428 57
      vertex 19.0739 4.05428 57
      vertex 19.5 0 57
    endloop
  endfacet
  facet normal 0 0 -1
    outer loop
      vertex 17.8141 -7.93136 57
      vertex 19.0739 4.05428 57
      vertex 19.0739 -4.05428 57
    endloop
  endfacet
  facet normal 0 0 -1
    outer loop
      vertex 17.8141 -7.93136 57
      vertex 17.8141 7.93136 57
      vertex 19.0739 4.05428 57
    endloop
  endfacet
  facet normal 0 0 -1
    outer loop
      vertex 15.7758 -11.4618 57
      vertex 17.8141 7.93136 57
      vertex 17.8141 -7.93136 57
    endloop
  endfacet
  facet normal 0 0 -1
    outer loop
      vertex 15.7758 -11.4618 57
      vertex 15.7758 11.4618 57
      vertex 17.8141 7.93136 57
    endloop
  endfacet
  facet normal 0 0 -1
    outer loop
      vertex 13.048 -14.4913 57
      vertex 15.7758 11.4618 57
      vertex 15.7758 -11.4618 57
    endloop
  endfacet
  facet normal 0 0 -1
    outer loop
      vertex 13.048 -14.4913 57
      vertex 13.048 14.4913 57
      vertex 15.7758 11.4618 57
    endloop
  endfacet
  facet normal 0 0 -1
    outer loop
      vertex 9.75 -16.8875 57
      vertex 13.048 14.4913 57
      vertex 13.048 -14.4913 57
    endloop
  endfacet
  facet normal 0 0 -1
    outer loop
      vertex 9.75 -16.8875 57
      vertex 9.75 16.8875 57
      vertex 13.048 14.4913 57
    endloop
  endfacet
  facet normal 0 0 -1
    outer loop
      vertex 6.02583 -18.5456 57
      vertex 9.75 16.8875 57
      vertex 9.75 -16.8875 57
    endloop
  endfacet
  facet normal 0 0 -1
    outer loop
      vertex 6.02583 -18.5456 57
      vertex 6.02583 18.5456 57
      vertex 9.75 16.8875 57
    endloop
  endfacet
  facet normal 0 0 -1
    outer loop
      vertex 2.0383 -19.3932 57
      vertex 6.02583 18.5456 57
      vertex 6.02583 -18.5456 57
    endloop
  endfacet
  facet normal 0 0 -1
    outer loop
      vertex 2.0383 -19.3932 57
      vertex 2.0383 19.3932 57
      vertex 6.02583 18.5456 57
    endloop
  endfacet
  facet normal 0 0 -1
    outer loop
      vertex -2.0383 -19.3932 57
      vertex 2.0383 19.3932 57
      vertex 2.0383 -19.3932 57
    endloop
  endfacet
  facet normal 0 0 -1
    outer loop
      vertex -2.0383 -19.3932 57
      vertex -2.0383 19.3932 57
      vertex 2.0383 19.3932 57
    endloop
  endfacet
  facet normal 0 0 -1
    outer loop
      vertex -6.02583 -18.5456 57
      vertex -2.0383 19.3932 57
      vertex -2.0383 -19.3932 57
    endloop
  endfacet
  facet normal 0 0 -1
    outer loop
      vertex -6.02583 -18.5456 57
      vertex -6.02583 18.5456 57
      vertex -2.0383 19.3932 57
    endloop
  endfacet
  facet normal 0 0 -1
    outer loop
      vertex -6.02583 -18.5456 57
      vertex -9.75 16.8875 57
      vertex -6.02583 18.5456 57
    endloop
  endfacet
  facet normal 0 0 -1
    outer loop
      vertex -9.75 -16.8875 57
      vertex -9.75 16.8875 57
      vertex -6.02583 -18.5456 57
    endloop
  endfacet
  facet normal 0 0 -1
    outer loop
      vertex -13.048 -14.4913 57
      vertex -9.75 16.8875 57
      vertex -9.75 -16.8875 57
    endloop
  endfacet
  facet normal 0 0 -1
    outer loop
      vertex -13.048 -14.4913 57
      vertex -13.048 14.4913 57
      vertex -9.75 16.8875 57
    endloop
  endfacet
  facet normal 0 0 -1
    outer loop
      vertex -15.7758 -11.4618 57
      vertex -13.048 14.4913 57
      vertex -13.048 -14.4913 57
    endloop
  endfacet
  facet normal 0 0 -1
    outer loop
      vertex -15.7758 -11.4618 57
      vertex -15.7758 11.4618 57
      vertex -13.048 14.4913 57
    endloop
  endfacet
  facet normal 0 0 -1
    outer loop
      vertex -17.8141 -7.93136 57
      vertex -15.7758 11.4618 57
      vertex -15.7758 -11.4618 57
    endloop
  endfacet
  facet normal 0 0 -1
    outer loop
      vertex -17.8141 -7.93136 57
      vertex -17.8141 7.93136 57
      vertex -15.7758 11.4618 57
    endloop
  endfacet
  facet normal 0 0 -1
    outer loop
      vertex -19.0739 -4.05428 57
      vertex -17.8141 7.93136 57
      vertex -17.8141 -7.93136 57
    endloop
  endfacet
  facet normal 0 0 -1
    outer loop
      vertex -19.0739 -4.05428 57
      vertex -19.0739 4.05428 57
      vertex -17.8141 7.93136 57
    endloop
  endfacet
  facet normal 0 -0 -1
    outer loop
      vertex -19.0739 4.05428 57
      vertex -19.0739 -4.05428 57
      vertex -19.5 0 57
    endloop
  endfacet
  facet normal -0.951057 0.309017 0
    outer loop
      vertex 17.8141 -7.93136 0
      vertex 19.0739 -4.05428 57
      vertex 19.0739 -4.05428 0
    endloop
  endfacet
  facet normal -0.951057 0.309017 0
    outer loop
      vertex 19.0739 -4.05428 57
      vertex 17.8141 -7.93136 0
      vertex 17.8141 -7.93136 57
    endloop
  endfacet
  facet normal -0.866025 0.5 0
    outer loop
      vertex 15.7758 -11.4618 0
      vertex 17.8141 -7.93136 57
      vertex 17.8141 -7.93136 0
    endloop
  endfacet
  facet normal -0.866025 0.5 0
    outer loop
      vertex 17.8141 -7.93136 57
      vertex 15.7758 -11.4618 0
      vertex 15.7758 -11.4618 57
    endloop
  endfacet
  facet normal 0.994522 0.104529 0
    outer loop
      vertex -19.0739 -4.05428 57
      vertex -19.5 0 0
      vertex -19.5 0 57
    endloop
  endfacet
  facet normal 0.994522 0.104529 0
    outer loop
      vertex -19.5 0 0
      vertex -19.0739 -4.05428 57
      vertex -19.0739 -4.05428 0
    endloop
  endfacet
  facet normal 0.866025 0.5 0
    outer loop
      vertex -15.7758 -11.4618 57
      vertex -17.8141 -7.93136 0
      vertex -17.8141 -7.93136 57
    endloop
  endfacet
  facet normal 0.866025 0.5 0
    outer loop
      vertex -17.8141 -7.93136 0
      vertex -15.7758 -11.4618 57
      vertex -15.7758 -11.4618 0
    endloop
  endfacet
  facet normal -0.207912 0.978148 0
    outer loop
      vertex 6.02583 -18.5456 0
      vertex 2.0383 -19.3932 57
      vertex 6.02583 -18.5456 57
    endloop
  endfacet
  facet normal -0.207912 0.978148 0
    outer loop
      vertex 2.0383 -19.3932 57
      vertex 6.02583 -18.5456 0
      vertex 2.0383 -19.3932 0
    endloop
  endfacet
  facet normal -0.406736 0.913546 0
    outer loop
      vertex 9.75 -16.8875 0
      vertex 6.02583 -18.5456 57
      vertex 9.75 -16.8875 57
    endloop
  endfacet
  facet normal -0.406736 0.913546 0
    outer loop
      vertex 6.02583 -18.5456 57
      vertex 9.75 -16.8875 0
      vertex 6.02583 -18.5456 0
    endloop
  endfacet
  facet normal -0.743145 0.669131 0
    outer loop
      vertex 13.048 -14.4913 0
      vertex 15.7758 -11.4618 57
      vertex 15.7758 -11.4618 0
    endloop
  endfacet
  facet normal -0.743145 0.669131 0
    outer loop
      vertex 15.7758 -11.4618 57
      vertex 13.048 -14.4913 0
      vertex 13.048 -14.4913 57
    endloop
  endfacet
  facet normal 0.406736 0.913546 -0
    outer loop
      vertex -6.02583 -18.5456 0
      vertex -9.75 -16.8875 57
      vertex -6.02583 -18.5456 57
    endloop
  endfacet
  facet normal 0.406736 0.913546 0
    outer loop
      vertex -9.75 -16.8875 57
      vertex -6.02583 -18.5456 0
      vertex -9.75 -16.8875 0
    endloop
  endfacet
  facet normal 0 1 -0
    outer loop
      vertex 2.0383 -19.3932 0
      vertex -2.0383 -19.3932 57
      vertex 2.0383 -19.3932 57
    endloop
  endfacet
  facet normal 0 1 0
    outer loop
      vertex -2.0383 -19.3932 57
      vertex 2.0383 -19.3932 0
      vertex -2.0383 -19.3932 0
    endloop
  endfacet
  facet normal 0.951057 0.309017 0
    outer loop
      vertex -17.8141 -7.93136 57
      vertex -19.0739 -4.05428 0
      vertex -19.0739 -4.05428 57
    endloop
  endfacet
  facet normal 0.951057 0.309017 0
    outer loop
      vertex -19.0739 -4.05428 0
      vertex -17.8141 -7.93136 57
      vertex -17.8141 -7.93136 0
    endloop
  endfacet
  facet normal 0.743145 0.669131 0
    outer loop
      vertex -13.048 -14.4913 57
      vertex -15.7758 -11.4618 0
      vertex -15.7758 -11.4618 57
    endloop
  endfacet
  facet normal 0.743145 0.669131 0
    outer loop
      vertex -15.7758 -11.4618 0
      vertex -13.048 -14.4913 57
      vertex -13.048 -14.4913 0
    endloop
  endfacet
  facet normal 0.587785 0.809017 -0
    outer loop
      vertex -9.75 -16.8875 0
      vertex -13.048 -14.4913 57
      vertex -9.75 -16.8875 57
    endloop
  endfacet
  facet normal 0.587785 0.809017 0
    outer loop
      vertex -13.048 -14.4913 57
      vertex -9.75 -16.8875 0
      vertex -13.048 -14.4913 0
    endloop
  endfacet
endsolid OpenSCAD_Model
