solid OpenSCAD_Model
  facet normal 0 0.0314109 -0.999507
    outer loop
      vertex -20 0 -7.5
      vertex 280 0.470929 -7.4852
      vertex 280 0 -7.5
    endloop
  endfacet
  facet normal 0 0.0314109 -0.999507
    outer loop
      vertex 280 0.470929 -7.4852
      vertex -20 0 -7.5
      vertex -20 0.470929 -7.4852
    endloop
  endfacet
  facet normal 0 0.0941082 -0.995562
    outer loop
      vertex -20 0.470929 -7.4852
      vertex 280 0.939999 -7.44086
      vertex 280 0.470929 -7.4852
    endloop
  endfacet
  facet normal 0 0.0941082 -0.995562
    outer loop
      vertex 280 0.939999 -7.44086
      vertex -20 0.470929 -7.4852
      vertex -20 0.939999 -7.44086
    endloop
  endfacet
  facet normal 0 0.156434 -0.987688
    outer loop
      vertex -20 0.939999 -7.44086
      vertex 280 1.40536 -7.36715
      vertex 280 0.939999 -7.44086
    endloop
  endfacet
  facet normal 0 0.156434 -0.987688
    outer loop
      vertex 280 1.40536 -7.36715
      vertex -20 0.939999 -7.44086
      vertex -20 1.40536 -7.36715
    endloop
  endfacet
  facet normal 0 0.218144 -0.975917
    outer loop
      vertex -20 1.40536 -7.36715
      vertex 280 1.86517 -7.26437
      vertex 280 1.40536 -7.36715
    endloop
  endfacet
  facet normal 0 0.218144 -0.975917
    outer loop
      vertex 280 1.86517 -7.26437
      vertex -20 1.40536 -7.36715
      vertex -20 1.86517 -7.26437
    endloop
  endfacet
  facet normal 0 0.278991 -0.960294
    outer loop
      vertex -20 1.86517 -7.26437
      vertex 280 2.31763 -7.13292
      vertex 280 1.86517 -7.26437
    endloop
  endfacet
  facet normal 0 0.278991 -0.960294
    outer loop
      vertex 280 2.31763 -7.13292
      vertex -20 1.86517 -7.26437
      vertex -20 2.31763 -7.13292
    endloop
  endfacet
  facet normal 0 0.338738 -0.940881
    outer loop
      vertex -20 2.31763 -7.13292
      vertex 280 2.76093 -6.97332
      vertex 280 2.31763 -7.13292
    endloop
  endfacet
  facet normal 0 0.338738 -0.940881
    outer loop
      vertex 280 2.76093 -6.97332
      vertex -20 2.31763 -7.13292
      vertex -20 2.76093 -6.97332
    endloop
  endfacet
  facet normal 0 0.397148 -0.917754
    outer loop
      vertex -20 2.76093 -6.97332
      vertex 280 3.19334 -6.7862
      vertex 280 2.76093 -6.97332
    endloop
  endfacet
  facet normal 0 0.397148 -0.917754
    outer loop
      vertex 280 3.19334 -6.7862
      vertex -20 2.76093 -6.97332
      vertex -20 3.19334 -6.7862
    endloop
  endfacet
  facet normal 0 0.453991 -0.891006
    outer loop
      vertex -20 3.19334 -6.7862
      vertex 280 3.61315 -6.5723
      vertex 280 3.19334 -6.7862
    endloop
  endfacet
  facet normal 0 0.453991 -0.891006
    outer loop
      vertex 280 3.61315 -6.5723
      vertex -20 3.19334 -6.7862
      vertex -20 3.61315 -6.5723
    endloop
  endfacet
  facet normal 0 0.509041 -0.860742
    outer loop
      vertex -20 3.61315 -6.5723
      vertex 280 4.0187 -6.33246
      vertex 280 3.61315 -6.5723
    endloop
  endfacet
  facet normal 0 0.509041 -0.860742
    outer loop
      vertex 280 4.0187 -6.33246
      vertex -20 3.61315 -6.5723
      vertex -20 4.0187 -6.33246
    endloop
  endfacet
  facet normal 0 0.562083 -0.827081
    outer loop
      vertex -20 4.0187 -6.33246
      vertex 280 4.40839 -6.06763
      vertex 280 4.0187 -6.33246
    endloop
  endfacet
  facet normal 0 0.562083 -0.827081
    outer loop
      vertex 280 4.40839 -6.06763
      vertex -20 4.0187 -6.33246
      vertex -20 4.40839 -6.06763
    endloop
  endfacet
  facet normal 0 0.612908 -0.790155
    outer loop
      vertex -20 4.40839 -6.06763
      vertex 280 4.78068 -5.77885
      vertex 280 4.40839 -6.06763
    endloop
  endfacet
  facet normal 0 0.612908 -0.790155
    outer loop
      vertex 280 4.78068 -5.77885
      vertex -20 4.40839 -6.06763
      vertex -20 4.78068 -5.77885
    endloop
  endfacet
  facet normal 0 0.661311 -0.750111
    outer loop
      vertex -20 4.78068 -5.77885
      vertex 280 5.1341 -5.46726
      vertex 280 4.78068 -5.77885
    endloop
  endfacet
  facet normal 0 0.661311 -0.750111
    outer loop
      vertex 280 5.1341 -5.46726
      vertex -20 4.78068 -5.77885
      vertex -20 5.1341 -5.46726
    endloop
  endfacet
  facet normal 0 0.707107 -0.707107
    outer loop
      vertex 280 5.1341 -5.46726
      vertex -20 5.46726 -5.1341
      vertex 280 5.46726 -5.1341
    endloop
  endfacet
  facet normal 0 0.707107 -0.707107
    outer loop
      vertex -20 5.46726 -5.1341
      vertex 280 5.1341 -5.46726
      vertex -20 5.1341 -5.46726
    endloop
  endfacet
  facet normal 0 0.750111 -0.661311
    outer loop
      vertex 280 5.46726 -5.1341
      vertex -20 5.77885 -4.78068
      vertex 280 5.77885 -4.78068
    endloop
  endfacet
  facet normal 0 0.750111 -0.661311
    outer loop
      vertex -20 5.77885 -4.78068
      vertex 280 5.46726 -5.1341
      vertex -20 5.46726 -5.1341
    endloop
  endfacet
  facet normal 0 0.790155 -0.612908
    outer loop
      vertex 280 5.77885 -4.78068
      vertex -20 6.06763 -4.40839
      vertex 280 6.06763 -4.40839
    endloop
  endfacet
  facet normal 0 0.790155 -0.612908
    outer loop
      vertex -20 6.06763 -4.40839
      vertex 280 5.77885 -4.78068
      vertex -20 5.77885 -4.78068
    endloop
  endfacet
  facet normal 0 0.827081 -0.562083
    outer loop
      vertex 280 6.06763 -4.40839
      vertex -20 6.33246 -4.0187
      vertex 280 6.33246 -4.0187
    endloop
  endfacet
  facet normal 0 0.827081 -0.562083
    outer loop
      vertex -20 6.33246 -4.0187
      vertex 280 6.06763 -4.40839
      vertex -20 6.06763 -4.40839
    endloop
  endfacet
  facet normal 0 0.860742 -0.509041
    outer loop
      vertex 280 6.33246 -4.0187
      vertex -20 6.5723 -3.61315
      vertex 280 6.5723 -3.61315
    endloop
  endfacet
  facet normal 0 0.860742 -0.509041
    outer loop
      vertex -20 6.5723 -3.61315
      vertex 280 6.33246 -4.0187
      vertex -20 6.33246 -4.0187
    endloop
  endfacet
  facet normal 0 0.891006 -0.453991
    outer loop
      vertex 280 6.5723 -3.61315
      vertex -20 6.7862 -3.19334
      vertex 280 6.7862 -3.19334
    endloop
  endfacet
  facet normal 0 0.891006 -0.453991
    outer loop
      vertex -20 6.7862 -3.19334
      vertex 280 6.5723 -3.61315
      vertex -20 6.5723 -3.61315
    endloop
  endfacet
  facet normal 0 0.917754 -0.397148
    outer loop
      vertex 280 6.7862 -3.19334
      vertex -20 6.97332 -2.76093
      vertex 280 6.97332 -2.76093
    endloop
  endfacet
  facet normal 0 0.917754 -0.397148
    outer loop
      vertex -20 6.97332 -2.76093
      vertex 280 6.7862 -3.19334
      vertex -20 6.7862 -3.19334
    endloop
  endfacet
  facet normal 0 0.940881 -0.338738
    outer loop
      vertex 280 6.97332 -2.76093
      vertex -20 7.13292 -2.31763
      vertex 280 7.13292 -2.31763
    endloop
  endfacet
  facet normal 0 0.940881 -0.338738
    outer loop
      vertex -20 7.13292 -2.31763
      vertex 280 6.97332 -2.76093
      vertex -20 6.97332 -2.76093
    endloop
  endfacet
  facet normal 0 0.960294 -0.278991
    outer loop
      vertex 280 7.13292 -2.31763
      vertex -20 7.26437 -1.86517
      vertex 280 7.26437 -1.86517
    endloop
  endfacet
  facet normal 0 0.960294 -0.278991
    outer loop
      vertex -20 7.26437 -1.86517
      vertex 280 7.13292 -2.31763
      vertex -20 7.13292 -2.31763
    endloop
  endfacet
  facet normal 0 0.975917 -0.218144
    outer loop
      vertex 280 7.26437 -1.86517
      vertex -20 7.36715 -1.40536
      vertex 280 7.36715 -1.40536
    endloop
  endfacet
  facet normal 0 0.975917 -0.218144
    outer loop
      vertex -20 7.36715 -1.40536
      vertex 280 7.26437 -1.86517
      vertex -20 7.26437 -1.86517
    endloop
  endfacet
  facet normal 0 0.987688 -0.156434
    outer loop
      vertex 280 7.36715 -1.40536
      vertex -20 7.44086 -0.939999
      vertex 280 7.44086 -0.939999
    endloop
  endfacet
  facet normal 0 0.987688 -0.156434
    outer loop
      vertex -20 7.44086 -0.939999
      vertex 280 7.36715 -1.40536
      vertex -20 7.36715 -1.40536
    endloop
  endfacet
  facet normal 0 0.995562 -0.0941082
    outer loop
      vertex 280 7.44086 -0.939999
      vertex -20 7.4852 -0.470929
      vertex 280 7.4852 -0.470929
    endloop
  endfacet
  facet normal 0 0.995562 -0.0941082
    outer loop
      vertex -20 7.4852 -0.470929
      vertex 280 7.44086 -0.939999
      vertex -20 7.44086 -0.939999
    endloop
  endfacet
  facet normal 6.97702e-18 0.999507 -0.0314109
    outer loop
      vertex 280 7.4852 -0.470929
      vertex -20 7.5 -4.59243e-16
      vertex 280 7.5 6.61541e-14
    endloop
  endfacet
  facet normal 0 0.999507 -0.0314109
    outer loop
      vertex -20 7.5 -4.59243e-16
      vertex 280 7.4852 -0.470929
      vertex -20 7.4852 -0.470929
    endloop
  endfacet
  facet normal 0 0.999507 0.0314109
    outer loop
      vertex 280 7.5 6.61541e-14
      vertex -20 7.4852 0.470929
      vertex 280 7.4852 0.470929
    endloop
  endfacet
  facet normal -6.97702e-18 0.999507 0.0314109
    outer loop
      vertex -20 7.4852 0.470929
      vertex 280 7.5 6.61541e-14
      vertex -20 7.5 -4.59243e-16
    endloop
  endfacet
  facet normal 0 0.995562 0.0941082
    outer loop
      vertex 280 7.4852 0.470929
      vertex -20 7.44086 0.939999
      vertex 280 7.44086 0.939999
    endloop
  endfacet
  facet normal 0 0.995562 0.0941082
    outer loop
      vertex -20 7.44086 0.939999
      vertex 280 7.4852 0.470929
      vertex -20 7.4852 0.470929
    endloop
  endfacet
  facet normal 0 0.987688 0.156434
    outer loop
      vertex 280 7.44086 0.939999
      vertex -20 7.36715 1.40536
      vertex 280 7.36715 1.40536
    endloop
  endfacet
  facet normal 0 0.987688 0.156434
    outer loop
      vertex -20 7.36715 1.40536
      vertex 280 7.44086 0.939999
      vertex -20 7.44086 0.939999
    endloop
  endfacet
  facet normal 0 0.975917 0.218144
    outer loop
      vertex 280 7.36715 1.40536
      vertex -20 7.26437 1.86517
      vertex 280 7.26437 1.86517
    endloop
  endfacet
  facet normal 0 0.975917 0.218144
    outer loop
      vertex -20 7.26437 1.86517
      vertex 280 7.36715 1.40536
      vertex -20 7.36715 1.40536
    endloop
  endfacet
  facet normal 0 0.960294 0.278991
    outer loop
      vertex 280 7.26437 1.86517
      vertex -20 7.13292 2.31763
      vertex 280 7.13292 2.31763
    endloop
  endfacet
  facet normal 0 0.960294 0.278991
    outer loop
      vertex -20 7.13292 2.31763
      vertex 280 7.26437 1.86517
      vertex -20 7.26437 1.86517
    endloop
  endfacet
  facet normal 0 0.940881 0.338738
    outer loop
      vertex 280 7.13292 2.31763
      vertex -20 6.97332 2.76093
      vertex 280 6.97332 2.76093
    endloop
  endfacet
  facet normal 0 0.940881 0.338738
    outer loop
      vertex -20 6.97332 2.76093
      vertex 280 7.13292 2.31763
      vertex -20 7.13292 2.31763
    endloop
  endfacet
  facet normal 0 0.917754 0.397148
    outer loop
      vertex 280 6.97332 2.76093
      vertex -20 6.7862 3.19334
      vertex 280 6.7862 3.19334
    endloop
  endfacet
  facet normal 0 0.917754 0.397148
    outer loop
      vertex -20 6.7862 3.19334
      vertex 280 6.97332 2.76093
      vertex -20 6.97332 2.76093
    endloop
  endfacet
  facet normal 0 0.891006 0.453991
    outer loop
      vertex 280 6.7862 3.19334
      vertex -20 6.5723 3.61315
      vertex 280 6.5723 3.61315
    endloop
  endfacet
  facet normal 0 0.891006 0.453991
    outer loop
      vertex -20 6.5723 3.61315
      vertex 280 6.7862 3.19334
      vertex -20 6.7862 3.19334
    endloop
  endfacet
  facet normal 0 0.860742 0.509041
    outer loop
      vertex 280 6.5723 3.61315
      vertex -20 6.33246 4.0187
      vertex 280 6.33246 4.0187
    endloop
  endfacet
  facet normal 0 0.860742 0.509041
    outer loop
      vertex -20 6.33246 4.0187
      vertex 280 6.5723 3.61315
      vertex -20 6.5723 3.61315
    endloop
  endfacet
  facet normal 0 0.827081 0.562083
    outer loop
      vertex 280 6.33246 4.0187
      vertex -20 6.06763 4.40839
      vertex 280 6.06763 4.40839
    endloop
  endfacet
  facet normal 0 0.827081 0.562083
    outer loop
      vertex -20 6.06763 4.40839
      vertex 280 6.33246 4.0187
      vertex -20 6.33246 4.0187
    endloop
  endfacet
  facet normal 0 0.790155 0.612908
    outer loop
      vertex 280 6.06763 4.40839
      vertex -20 5.77885 4.78068
      vertex 280 5.77885 4.78068
    endloop
  endfacet
  facet normal 0 0.790155 0.612908
    outer loop
      vertex -20 5.77885 4.78068
      vertex 280 6.06763 4.40839
      vertex -20 6.06763 4.40839
    endloop
  endfacet
  facet normal 0 0.750111 0.661311
    outer loop
      vertex 280 5.77885 4.78068
      vertex -20 5.46726 5.1341
      vertex 280 5.46726 5.1341
    endloop
  endfacet
  facet normal 0 0.750111 0.661311
    outer loop
      vertex -20 5.46726 5.1341
      vertex 280 5.77885 4.78068
      vertex -20 5.77885 4.78068
    endloop
  endfacet
  facet normal 0 0.707107 0.707107
    outer loop
      vertex 280 5.46726 5.1341
      vertex -20 5.1341 5.46726
      vertex 280 5.1341 5.46726
    endloop
  endfacet
  facet normal 0 0.707107 0.707107
    outer loop
      vertex -20 5.1341 5.46726
      vertex 280 5.46726 5.1341
      vertex -20 5.46726 5.1341
    endloop
  endfacet
  facet normal -0 0.661311 0.750111
    outer loop
      vertex -20 5.1341 5.46726
      vertex 280 4.78068 5.77885
      vertex 280 5.1341 5.46726
    endloop
  endfacet
  facet normal 0 0.661311 0.750111
    outer loop
      vertex 280 4.78068 5.77885
      vertex -20 5.1341 5.46726
      vertex -20 4.78068 5.77885
    endloop
  endfacet
  facet normal -0 0.612908 0.790155
    outer loop
      vertex -20 4.78068 5.77885
      vertex 280 4.40839 6.06763
      vertex 280 4.78068 5.77885
    endloop
  endfacet
  facet normal 0 0.612908 0.790155
    outer loop
      vertex 280 4.40839 6.06763
      vertex -20 4.78068 5.77885
      vertex -20 4.40839 6.06763
    endloop
  endfacet
  facet normal -0 0.562083 0.827081
    outer loop
      vertex -20 4.40839 6.06763
      vertex 280 4.0187 6.33246
      vertex 280 4.40839 6.06763
    endloop
  endfacet
  facet normal 0 0.562083 0.827081
    outer loop
      vertex 280 4.0187 6.33246
      vertex -20 4.40839 6.06763
      vertex -20 4.0187 6.33246
    endloop
  endfacet
  facet normal -0 0.509041 0.860742
    outer loop
      vertex -20 4.0187 6.33246
      vertex 280 3.61315 6.5723
      vertex 280 4.0187 6.33246
    endloop
  endfacet
  facet normal 0 0.509041 0.860742
    outer loop
      vertex 280 3.61315 6.5723
      vertex -20 4.0187 6.33246
      vertex -20 3.61315 6.5723
    endloop
  endfacet
  facet normal -0 0.453991 0.891006
    outer loop
      vertex -20 3.61315 6.5723
      vertex 280 3.19334 6.7862
      vertex 280 3.61315 6.5723
    endloop
  endfacet
  facet normal 0 0.453991 0.891006
    outer loop
      vertex 280 3.19334 6.7862
      vertex -20 3.61315 6.5723
      vertex -20 3.19334 6.7862
    endloop
  endfacet
  facet normal -0 0.397148 0.917754
    outer loop
      vertex -20 3.19334 6.7862
      vertex 280 2.76093 6.97332
      vertex 280 3.19334 6.7862
    endloop
  endfacet
  facet normal 0 0.397148 0.917754
    outer loop
      vertex 280 2.76093 6.97332
      vertex -20 3.19334 6.7862
      vertex -20 2.76093 6.97332
    endloop
  endfacet
  facet normal -0 0.338738 0.940881
    outer loop
      vertex -20 2.76093 6.97332
      vertex 280 2.31763 7.13292
      vertex 280 2.76093 6.97332
    endloop
  endfacet
  facet normal 0 0.338738 0.940881
    outer loop
      vertex 280 2.31763 7.13292
      vertex -20 2.76093 6.97332
      vertex -20 2.31763 7.13292
    endloop
  endfacet
  facet normal -0 0.278991 0.960294
    outer loop
      vertex -20 2.31763 7.13292
      vertex 280 1.86517 7.26437
      vertex 280 2.31763 7.13292
    endloop
  endfacet
  facet normal 0 0.278991 0.960294
    outer loop
      vertex 280 1.86517 7.26437
      vertex -20 2.31763 7.13292
      vertex -20 1.86517 7.26437
    endloop
  endfacet
  facet normal -0 0.218144 0.975917
    outer loop
      vertex -20 1.86517 7.26437
      vertex 280 1.40536 7.36715
      vertex 280 1.86517 7.26437
    endloop
  endfacet
  facet normal 0 0.218144 0.975917
    outer loop
      vertex 280 1.40536 7.36715
      vertex -20 1.86517 7.26437
      vertex -20 1.40536 7.36715
    endloop
  endfacet
  facet normal -0 0.156434 0.987688
    outer loop
      vertex -20 1.40536 7.36715
      vertex 280 0.939999 7.44086
      vertex 280 1.40536 7.36715
    endloop
  endfacet
  facet normal 0 0.156434 0.987688
    outer loop
      vertex 280 0.939999 7.44086
      vertex -20 1.40536 7.36715
      vertex -20 0.939999 7.44086
    endloop
  endfacet
  facet normal -0 0.0941082 0.995562
    outer loop
      vertex -20 0.939999 7.44086
      vertex 280 0.470929 7.4852
      vertex 280 0.939999 7.44086
    endloop
  endfacet
  facet normal 0 0.0941082 0.995562
    outer loop
      vertex 280 0.470929 7.4852
      vertex -20 0.939999 7.44086
      vertex -20 0.470929 7.4852
    endloop
  endfacet
  facet normal -0 0.0314109 0.999507
    outer loop
      vertex -20 0.470929 7.4852
      vertex 280 9.18485e-16 7.5
      vertex 280 0.470929 7.4852
    endloop
  endfacet
  facet normal 0 0.0314109 0.999507
    outer loop
      vertex 280 9.18485e-16 7.5
      vertex -20 0.470929 7.4852
      vertex -20 9.18485e-16 7.5
    endloop
  endfacet
  facet normal 0 -0.0314109 0.999507
    outer loop
      vertex -20 9.18485e-16 7.5
      vertex 280 -0.470929 7.4852
      vertex 280 9.18485e-16 7.5
    endloop
  endfacet
  facet normal 0 -0.0314109 0.999507
    outer loop
      vertex 280 -0.470929 7.4852
      vertex -20 9.18485e-16 7.5
      vertex -20 -0.470929 7.4852
    endloop
  endfacet
  facet normal 0 -0.0941082 0.995562
    outer loop
      vertex -20 -0.470929 7.4852
      vertex 280 -0.939999 7.44086
      vertex 280 -0.470929 7.4852
    endloop
  endfacet
  facet normal 0 -0.0941082 0.995562
    outer loop
      vertex 280 -0.939999 7.44086
      vertex -20 -0.470929 7.4852
      vertex -20 -0.939999 7.44086
    endloop
  endfacet
  facet normal 0 -0.156434 0.987688
    outer loop
      vertex -20 -0.939999 7.44086
      vertex 280 -1.40536 7.36715
      vertex 280 -0.939999 7.44086
    endloop
  endfacet
  facet normal 0 -0.156434 0.987688
    outer loop
      vertex 280 -1.40536 7.36715
      vertex -20 -0.939999 7.44086
      vertex -20 -1.40536 7.36715
    endloop
  endfacet
  facet normal 0 -0.218144 0.975917
    outer loop
      vertex -20 -1.40536 7.36715
      vertex 280 -1.86517 7.26437
      vertex 280 -1.40536 7.36715
    endloop
  endfacet
  facet normal 0 -0.218144 0.975917
    outer loop
      vertex 280 -1.86517 7.26437
      vertex -20 -1.40536 7.36715
      vertex -20 -1.86517 7.26437
    endloop
  endfacet
  facet normal 0 -0.278991 0.960294
    outer loop
      vertex -20 -1.86517 7.26437
      vertex 280 -2.31763 7.13292
      vertex 280 -1.86517 7.26437
    endloop
  endfacet
  facet normal 0 -0.278991 0.960294
    outer loop
      vertex 280 -2.31763 7.13292
      vertex -20 -1.86517 7.26437
      vertex -20 -2.31763 7.13292
    endloop
  endfacet
  facet normal 0 -0.338738 0.940881
    outer loop
      vertex -20 -2.31763 7.13292
      vertex 280 -2.76093 6.97332
      vertex 280 -2.31763 7.13292
    endloop
  endfacet
  facet normal 0 -0.338738 0.940881
    outer loop
      vertex 280 -2.76093 6.97332
      vertex -20 -2.31763 7.13292
      vertex -20 -2.76093 6.97332
    endloop
  endfacet
  facet normal 0 -0.397148 0.917754
    outer loop
      vertex -20 -2.76093 6.97332
      vertex 280 -3.19334 6.7862
      vertex 280 -2.76093 6.97332
    endloop
  endfacet
  facet normal 0 -0.397148 0.917754
    outer loop
      vertex 280 -3.19334 6.7862
      vertex -20 -2.76093 6.97332
      vertex -20 -3.19334 6.7862
    endloop
  endfacet
  facet normal 0 -0.453991 0.891006
    outer loop
      vertex -20 -3.19334 6.7862
      vertex 280 -3.61315 6.5723
      vertex 280 -3.19334 6.7862
    endloop
  endfacet
  facet normal 0 -0.453991 0.891006
    outer loop
      vertex 280 -3.61315 6.5723
      vertex -20 -3.19334 6.7862
      vertex -20 -3.61315 6.5723
    endloop
  endfacet
  facet normal 0 -0.509041 0.860742
    outer loop
      vertex -20 -3.61315 6.5723
      vertex 280 -4.0187 6.33246
      vertex 280 -3.61315 6.5723
    endloop
  endfacet
  facet normal 0 -0.509041 0.860742
    outer loop
      vertex 280 -4.0187 6.33246
      vertex -20 -3.61315 6.5723
      vertex -20 -4.0187 6.33246
    endloop
  endfacet
  facet normal 0 -0.562083 0.827081
    outer loop
      vertex -20 -4.0187 6.33246
      vertex 280 -4.40839 6.06763
      vertex 280 -4.0187 6.33246
    endloop
  endfacet
  facet normal 0 -0.562083 0.827081
    outer loop
      vertex 280 -4.40839 6.06763
      vertex -20 -4.0187 6.33246
      vertex -20 -4.40839 6.06763
    endloop
  endfacet
  facet normal 0 -0.612908 0.790155
    outer loop
      vertex -20 -4.40839 6.06763
      vertex 280 -4.78068 5.77885
      vertex 280 -4.40839 6.06763
    endloop
  endfacet
  facet normal 0 -0.612908 0.790155
    outer loop
      vertex 280 -4.78068 5.77885
      vertex -20 -4.40839 6.06763
      vertex -20 -4.78068 5.77885
    endloop
  endfacet
  facet normal 0 -0.661311 0.750111
    outer loop
      vertex -20 -4.78068 5.77885
      vertex 280 -5.1341 5.46726
      vertex 280 -4.78068 5.77885
    endloop
  endfacet
  facet normal 0 -0.661311 0.750111
    outer loop
      vertex 280 -5.1341 5.46726
      vertex -20 -4.78068 5.77885
      vertex -20 -5.1341 5.46726
    endloop
  endfacet
  facet normal 0 -0.707107 0.707107
    outer loop
      vertex -20 -5.46726 5.1341
      vertex 280 -5.1341 5.46726
      vertex -20 -5.1341 5.46726
    endloop
  endfacet
  facet normal 0 -0.707107 0.707107
    outer loop
      vertex 280 -5.1341 5.46726
      vertex -20 -5.46726 5.1341
      vertex 280 -5.46726 5.1341
    endloop
  endfacet
  facet normal 0 -0.750111 0.661311
    outer loop
      vertex -20 -5.77885 4.78068
      vertex 280 -5.46726 5.1341
      vertex -20 -5.46726 5.1341
    endloop
  endfacet
  facet normal 0 -0.750111 0.661311
    outer loop
      vertex 280 -5.46726 5.1341
      vertex -20 -5.77885 4.78068
      vertex 280 -5.77885 4.78068
    endloop
  endfacet
  facet normal 0 -0.790155 0.612908
    outer loop
      vertex -20 -6.06763 4.40839
      vertex 280 -5.77885 4.78068
      vertex -20 -5.77885 4.78068
    endloop
  endfacet
  facet normal 0 -0.790155 0.612908
    outer loop
      vertex 280 -5.77885 4.78068
      vertex -20 -6.06763 4.40839
      vertex 280 -6.06763 4.40839
    endloop
  endfacet
  facet normal 0 -0.827081 0.562083
    outer loop
      vertex -20 -6.33246 4.0187
      vertex 280 -6.06763 4.40839
      vertex -20 -6.06763 4.40839
    endloop
  endfacet
  facet normal 0 -0.827081 0.562083
    outer loop
      vertex 280 -6.06763 4.40839
      vertex -20 -6.33246 4.0187
      vertex 280 -6.33246 4.0187
    endloop
  endfacet
  facet normal 0 -0.860742 0.509041
    outer loop
      vertex -20 -6.5723 3.61315
      vertex 280 -6.33246 4.0187
      vertex -20 -6.33246 4.0187
    endloop
  endfacet
  facet normal 0 -0.860742 0.509041
    outer loop
      vertex 280 -6.33246 4.0187
      vertex -20 -6.5723 3.61315
      vertex 280 -6.5723 3.61315
    endloop
  endfacet
  facet normal 0 -0.891006 0.453991
    outer loop
      vertex -20 -6.7862 3.19334
      vertex 280 -6.5723 3.61315
      vertex -20 -6.5723 3.61315
    endloop
  endfacet
  facet normal 0 -0.891006 0.453991
    outer loop
      vertex 280 -6.5723 3.61315
      vertex -20 -6.7862 3.19334
      vertex 280 -6.7862 3.19334
    endloop
  endfacet
  facet normal 0 -0.917754 0.397148
    outer loop
      vertex -20 -6.97332 2.76093
      vertex 280 -6.7862 3.19334
      vertex -20 -6.7862 3.19334
    endloop
  endfacet
  facet normal 0 -0.917754 0.397148
    outer loop
      vertex 280 -6.7862 3.19334
      vertex -20 -6.97332 2.76093
      vertex 280 -6.97332 2.76093
    endloop
  endfacet
  facet normal 0 -0.940881 0.338738
    outer loop
      vertex -20 -7.13292 2.31763
      vertex 280 -6.97332 2.76093
      vertex -20 -6.97332 2.76093
    endloop
  endfacet
  facet normal 0 -0.940881 0.338738
    outer loop
      vertex 280 -6.97332 2.76093
      vertex -20 -7.13292 2.31763
      vertex 280 -7.13292 2.31763
    endloop
  endfacet
  facet normal 0 -0.960294 0.278991
    outer loop
      vertex -20 -7.26437 1.86517
      vertex 280 -7.13292 2.31763
      vertex -20 -7.13292 2.31763
    endloop
  endfacet
  facet normal 0 -0.960294 0.278991
    outer loop
      vertex 280 -7.13292 2.31763
      vertex -20 -7.26437 1.86517
      vertex 280 -7.26437 1.86517
    endloop
  endfacet
  facet normal 0 -0.975917 0.218144
    outer loop
      vertex -20 -7.36715 1.40536
      vertex 280 -7.26437 1.86517
      vertex -20 -7.26437 1.86517
    endloop
  endfacet
  facet normal 0 -0.975917 0.218144
    outer loop
      vertex 280 -7.26437 1.86517
      vertex -20 -7.36715 1.40536
      vertex 280 -7.36715 1.40536
    endloop
  endfacet
  facet normal 0 -0.987688 0.156434
    outer loop
      vertex -20 -7.44086 0.939999
      vertex 280 -7.36715 1.40536
      vertex -20 -7.36715 1.40536
    endloop
  endfacet
  facet normal 0 -0.987688 0.156434
    outer loop
      vertex 280 -7.36715 1.40536
      vertex -20 -7.44086 0.939999
      vertex 280 -7.44086 0.939999
    endloop
  endfacet
  facet normal 0 -0.995562 0.0941082
    outer loop
      vertex -20 -7.4852 0.470929
      vertex 280 -7.44086 0.939999
      vertex -20 -7.44086 0.939999
    endloop
  endfacet
  facet normal 0 -0.995562 0.0941082
    outer loop
      vertex 280 -7.44086 0.939999
      vertex -20 -7.4852 0.470929
      vertex 280 -7.4852 0.470929
    endloop
  endfacet
  facet normal 0 -0.999507 0.0314109
    outer loop
      vertex -20 -7.4852 0.470929
      vertex 280 -7.5 6.79911e-14
      vertex 280 -7.4852 0.470929
    endloop
  endfacet
  facet normal -6.97462e-18 -0.999507 0.0314109
    outer loop
      vertex 280 -7.5 6.79911e-14
      vertex -20 -7.4852 0.470929
      vertex -20 -7.5 1.37773e-15
    endloop
  endfacet
  facet normal 6.97088e-18 -0.999507 -0.0314109
    outer loop
      vertex -20 -7.4852 -0.470929
      vertex 280 -7.5 6.79911e-14
      vertex -20 -7.5 1.37773e-15
    endloop
  endfacet
  facet normal 0 -0.999507 -0.0314109
    outer loop
      vertex 280 -7.5 6.79911e-14
      vertex -20 -7.4852 -0.470929
      vertex 280 -7.4852 -0.470929
    endloop
  endfacet
  facet normal 0 -0.995562 -0.0941082
    outer loop
      vertex -20 -7.44086 -0.939999
      vertex 280 -7.4852 -0.470929
      vertex -20 -7.4852 -0.470929
    endloop
  endfacet
  facet normal 0 -0.995562 -0.0941082
    outer loop
      vertex 280 -7.4852 -0.470929
      vertex -20 -7.44086 -0.939999
      vertex 280 -7.44086 -0.939999
    endloop
  endfacet
  facet normal 0 -0.987688 -0.156434
    outer loop
      vertex -20 -7.36715 -1.40536
      vertex 280 -7.44086 -0.939999
      vertex -20 -7.44086 -0.939999
    endloop
  endfacet
  facet normal 0 -0.987688 -0.156434
    outer loop
      vertex 280 -7.44086 -0.939999
      vertex -20 -7.36715 -1.40536
      vertex 280 -7.36715 -1.40536
    endloop
  endfacet
  facet normal 0 -0.975917 -0.218144
    outer loop
      vertex -20 -7.26437 -1.86517
      vertex 280 -7.36715 -1.40536
      vertex -20 -7.36715 -1.40536
    endloop
  endfacet
  facet normal 0 -0.975917 -0.218144
    outer loop
      vertex 280 -7.36715 -1.40536
      vertex -20 -7.26437 -1.86517
      vertex 280 -7.26437 -1.86517
    endloop
  endfacet
  facet normal 0 -0.960294 -0.278991
    outer loop
      vertex -20 -7.13292 -2.31763
      vertex 280 -7.26437 -1.86517
      vertex -20 -7.26437 -1.86517
    endloop
  endfacet
  facet normal 0 -0.960294 -0.278991
    outer loop
      vertex 280 -7.26437 -1.86517
      vertex -20 -7.13292 -2.31763
      vertex 280 -7.13292 -2.31763
    endloop
  endfacet
  facet normal 0 -0.940881 -0.338738
    outer loop
      vertex -20 -6.97332 -2.76093
      vertex 280 -7.13292 -2.31763
      vertex -20 -7.13292 -2.31763
    endloop
  endfacet
  facet normal 0 -0.940881 -0.338738
    outer loop
      vertex 280 -7.13292 -2.31763
      vertex -20 -6.97332 -2.76093
      vertex 280 -6.97332 -2.76093
    endloop
  endfacet
  facet normal 0 -0.917754 -0.397148
    outer loop
      vertex -20 -6.7862 -3.19334
      vertex 280 -6.97332 -2.76093
      vertex -20 -6.97332 -2.76093
    endloop
  endfacet
  facet normal 0 -0.917754 -0.397148
    outer loop
      vertex 280 -6.97332 -2.76093
      vertex -20 -6.7862 -3.19334
      vertex 280 -6.7862 -3.19334
    endloop
  endfacet
  facet normal 0 -0.891006 -0.453991
    outer loop
      vertex -20 -6.5723 -3.61315
      vertex 280 -6.7862 -3.19334
      vertex -20 -6.7862 -3.19334
    endloop
  endfacet
  facet normal 0 -0.891006 -0.453991
    outer loop
      vertex 280 -6.7862 -3.19334
      vertex -20 -6.5723 -3.61315
      vertex 280 -6.5723 -3.61315
    endloop
  endfacet
  facet normal 0 -0.860742 -0.509041
    outer loop
      vertex -20 -6.33246 -4.0187
      vertex 280 -6.5723 -3.61315
      vertex -20 -6.5723 -3.61315
    endloop
  endfacet
  facet normal 0 -0.860742 -0.509041
    outer loop
      vertex 280 -6.5723 -3.61315
      vertex -20 -6.33246 -4.0187
      vertex 280 -6.33246 -4.0187
    endloop
  endfacet
  facet normal 0 -0.827081 -0.562083
    outer loop
      vertex -20 -6.06763 -4.40839
      vertex 280 -6.33246 -4.0187
      vertex -20 -6.33246 -4.0187
    endloop
  endfacet
  facet normal 0 -0.827081 -0.562083
    outer loop
      vertex 280 -6.33246 -4.0187
      vertex -20 -6.06763 -4.40839
      vertex 280 -6.06763 -4.40839
    endloop
  endfacet
  facet normal 0 -0.790155 -0.612908
    outer loop
      vertex -20 -5.77885 -4.78068
      vertex 280 -6.06763 -4.40839
      vertex -20 -6.06763 -4.40839
    endloop
  endfacet
  facet normal 0 -0.790155 -0.612908
    outer loop
      vertex 280 -6.06763 -4.40839
      vertex -20 -5.77885 -4.78068
      vertex 280 -5.77885 -4.78068
    endloop
  endfacet
  facet normal 0 -0.750111 -0.661311
    outer loop
      vertex -20 -5.46726 -5.1341
      vertex 280 -5.77885 -4.78068
      vertex -20 -5.77885 -4.78068
    endloop
  endfacet
  facet normal 0 -0.750111 -0.661311
    outer loop
      vertex 280 -5.77885 -4.78068
      vertex -20 -5.46726 -5.1341
      vertex 280 -5.46726 -5.1341
    endloop
  endfacet
  facet normal 0 -0.707107 -0.707107
    outer loop
      vertex -20 -5.1341 -5.46726
      vertex 280 -5.46726 -5.1341
      vertex -20 -5.46726 -5.1341
    endloop
  endfacet
  facet normal 0 -0.707107 -0.707107
    outer loop
      vertex 280 -5.46726 -5.1341
      vertex -20 -5.1341 -5.46726
      vertex 280 -5.1341 -5.46726
    endloop
  endfacet
  facet normal 0 -0.661311 -0.750111
    outer loop
      vertex -20 -5.1341 -5.46726
      vertex 280 -4.78068 -5.77885
      vertex 280 -5.1341 -5.46726
    endloop
  endfacet
  facet normal -0 -0.661311 -0.750111
    outer loop
      vertex 280 -4.78068 -5.77885
      vertex -20 -5.1341 -5.46726
      vertex -20 -4.78068 -5.77885
    endloop
  endfacet
  facet normal 0 -0.612908 -0.790155
    outer loop
      vertex -20 -4.78068 -5.77885
      vertex 280 -4.40839 -6.06763
      vertex 280 -4.78068 -5.77885
    endloop
  endfacet
  facet normal -0 -0.612908 -0.790155
    outer loop
      vertex 280 -4.40839 -6.06763
      vertex -20 -4.78068 -5.77885
      vertex -20 -4.40839 -6.06763
    endloop
  endfacet
  facet normal 0 -0.562083 -0.827081
    outer loop
      vertex -20 -4.40839 -6.06763
      vertex 280 -4.0187 -6.33246
      vertex 280 -4.40839 -6.06763
    endloop
  endfacet
  facet normal -0 -0.562083 -0.827081
    outer loop
      vertex 280 -4.0187 -6.33246
      vertex -20 -4.40839 -6.06763
      vertex -20 -4.0187 -6.33246
    endloop
  endfacet
  facet normal 0 -0.509041 -0.860742
    outer loop
      vertex -20 -4.0187 -6.33246
      vertex 280 -3.61315 -6.5723
      vertex 280 -4.0187 -6.33246
    endloop
  endfacet
  facet normal -0 -0.509041 -0.860742
    outer loop
      vertex 280 -3.61315 -6.5723
      vertex -20 -4.0187 -6.33246
      vertex -20 -3.61315 -6.5723
    endloop
  endfacet
  facet normal 0 -0.453991 -0.891006
    outer loop
      vertex -20 -3.61315 -6.5723
      vertex 280 -3.19334 -6.7862
      vertex 280 -3.61315 -6.5723
    endloop
  endfacet
  facet normal -0 -0.453991 -0.891006
    outer loop
      vertex 280 -3.19334 -6.7862
      vertex -20 -3.61315 -6.5723
      vertex -20 -3.19334 -6.7862
    endloop
  endfacet
  facet normal 0 -0.397148 -0.917754
    outer loop
      vertex -20 -3.19334 -6.7862
      vertex 280 -2.76093 -6.97332
      vertex 280 -3.19334 -6.7862
    endloop
  endfacet
  facet normal -0 -0.397148 -0.917754
    outer loop
      vertex 280 -2.76093 -6.97332
      vertex -20 -3.19334 -6.7862
      vertex -20 -2.76093 -6.97332
    endloop
  endfacet
  facet normal 0 -0.338738 -0.940881
    outer loop
      vertex -20 -2.76093 -6.97332
      vertex 280 -2.31763 -7.13292
      vertex 280 -2.76093 -6.97332
    endloop
  endfacet
  facet normal -0 -0.338738 -0.940881
    outer loop
      vertex 280 -2.31763 -7.13292
      vertex -20 -2.76093 -6.97332
      vertex -20 -2.31763 -7.13292
    endloop
  endfacet
  facet normal 0 -0.278991 -0.960294
    outer loop
      vertex -20 -2.31763 -7.13292
      vertex 280 -1.86517 -7.26437
      vertex 280 -2.31763 -7.13292
    endloop
  endfacet
  facet normal -0 -0.278991 -0.960294
    outer loop
      vertex 280 -1.86517 -7.26437
      vertex -20 -2.31763 -7.13292
      vertex -20 -1.86517 -7.26437
    endloop
  endfacet
  facet normal 0 -0.218144 -0.975917
    outer loop
      vertex -20 -1.86517 -7.26437
      vertex 280 -1.40536 -7.36715
      vertex 280 -1.86517 -7.26437
    endloop
  endfacet
  facet normal -0 -0.218144 -0.975917
    outer loop
      vertex 280 -1.40536 -7.36715
      vertex -20 -1.86517 -7.26437
      vertex -20 -1.40536 -7.36715
    endloop
  endfacet
  facet normal 0 -0.156434 -0.987688
    outer loop
      vertex -20 -1.40536 -7.36715
      vertex 280 -0.939999 -7.44086
      vertex 280 -1.40536 -7.36715
    endloop
  endfacet
  facet normal -0 -0.156434 -0.987688
    outer loop
      vertex 280 -0.939999 -7.44086
      vertex -20 -1.40536 -7.36715
      vertex -20 -0.939999 -7.44086
    endloop
  endfacet
  facet normal 0 -0.0941082 -0.995562
    outer loop
      vertex -20 -0.939999 -7.44086
      vertex 280 -0.470929 -7.4852
      vertex 280 -0.939999 -7.44086
    endloop
  endfacet
  facet normal -0 -0.0941082 -0.995562
    outer loop
      vertex 280 -0.470929 -7.4852
      vertex -20 -0.939999 -7.44086
      vertex -20 -0.470929 -7.4852
    endloop
  endfacet
  facet normal 0 -0.0314109 -0.999507
    outer loop
      vertex -20 -0.470929 -7.4852
      vertex 280 0 -7.5
      vertex 280 -0.470929 -7.4852
    endloop
  endfacet
  facet normal -0 -0.0314109 -0.999507
    outer loop
      vertex 280 0 -7.5
      vertex -20 -0.470929 -7.4852
      vertex -20 0 -7.5
    endloop
  endfacet
  facet normal -1 0 0
    outer loop
      vertex -20 7.4852 -0.470929
      vertex -20 7.4852 0.470929
      vertex -20 7.5 -4.59243e-16
    endloop
  endfacet
  facet normal -1 0 0
    outer loop
      vertex -20 7.44086 -0.939999
      vertex -20 7.4852 0.470929
      vertex -20 7.4852 -0.470929
    endloop
  endfacet
  facet normal -1 0 0
    outer loop
      vertex -20 7.44086 -0.939999
      vertex -20 7.44086 0.939999
      vertex -20 7.4852 0.470929
    endloop
  endfacet
  facet normal -1 0 0
    outer loop
      vertex -20 7.36715 -1.40536
      vertex -20 7.44086 0.939999
      vertex -20 7.44086 -0.939999
    endloop
  endfacet
  facet normal -1 0 0
    outer loop
      vertex -20 7.36715 -1.40536
      vertex -20 7.36715 1.40536
      vertex -20 7.44086 0.939999
    endloop
  endfacet
  facet normal -1 0 0
    outer loop
      vertex -20 7.26437 -1.86517
      vertex -20 7.36715 1.40536
      vertex -20 7.36715 -1.40536
    endloop
  endfacet
  facet normal -1 0 0
    outer loop
      vertex -20 7.26437 -1.86517
      vertex -20 7.26437 1.86517
      vertex -20 7.36715 1.40536
    endloop
  endfacet
  facet normal -1 0 0
    outer loop
      vertex -20 7.13292 -2.31763
      vertex -20 7.26437 1.86517
      vertex -20 7.26437 -1.86517
    endloop
  endfacet
  facet normal -1 0 0
    outer loop
      vertex -20 7.13292 -2.31763
      vertex -20 7.13292 2.31763
      vertex -20 7.26437 1.86517
    endloop
  endfacet
  facet normal -1 0 0
    outer loop
      vertex -20 6.97332 -2.76093
      vertex -20 7.13292 2.31763
      vertex -20 7.13292 -2.31763
    endloop
  endfacet
  facet normal -1 0 0
    outer loop
      vertex -20 6.97332 -2.76093
      vertex -20 6.97332 2.76093
      vertex -20 7.13292 2.31763
    endloop
  endfacet
  facet normal -1 0 0
    outer loop
      vertex -20 6.7862 -3.19334
      vertex -20 6.97332 2.76093
      vertex -20 6.97332 -2.76093
    endloop
  endfacet
  facet normal -1 0 0
    outer loop
      vertex -20 6.7862 -3.19334
      vertex -20 6.7862 3.19334
      vertex -20 6.97332 2.76093
    endloop
  endfacet
  facet normal -1 0 0
    outer loop
      vertex -20 6.5723 -3.61315
      vertex -20 6.7862 3.19334
      vertex -20 6.7862 -3.19334
    endloop
  endfacet
  facet normal -1 0 0
    outer loop
      vertex -20 6.5723 -3.61315
      vertex -20 6.5723 3.61315
      vertex -20 6.7862 3.19334
    endloop
  endfacet
  facet normal -1 0 0
    outer loop
      vertex -20 6.33246 -4.0187
      vertex -20 6.5723 3.61315
      vertex -20 6.5723 -3.61315
    endloop
  endfacet
  facet normal -1 0 0
    outer loop
      vertex -20 6.33246 -4.0187
      vertex -20 6.33246 4.0187
      vertex -20 6.5723 3.61315
    endloop
  endfacet
  facet normal -1 0 0
    outer loop
      vertex -20 6.06763 -4.40839
      vertex -20 6.33246 4.0187
      vertex -20 6.33246 -4.0187
    endloop
  endfacet
  facet normal -1 0 0
    outer loop
      vertex -20 6.06763 -4.40839
      vertex -20 6.06763 4.40839
      vertex -20 6.33246 4.0187
    endloop
  endfacet
  facet normal -1 0 0
    outer loop
      vertex -20 5.77885 -4.78068
      vertex -20 6.06763 4.40839
      vertex -20 6.06763 -4.40839
    endloop
  endfacet
  facet normal -1 0 0
    outer loop
      vertex -20 5.77885 -4.78068
      vertex -20 5.77885 4.78068
      vertex -20 6.06763 4.40839
    endloop
  endfacet
  facet normal -1 0 0
    outer loop
      vertex -20 5.46726 -5.1341
      vertex -20 5.77885 4.78068
      vertex -20 5.77885 -4.78068
    endloop
  endfacet
  facet normal -1 0 0
    outer loop
      vertex -20 5.46726 -5.1341
      vertex -20 5.46726 5.1341
      vertex -20 5.77885 4.78068
    endloop
  endfacet
  facet normal -1 0 0
    outer loop
      vertex -20 5.1341 -5.46726
      vertex -20 5.46726 5.1341
      vertex -20 5.46726 -5.1341
    endloop
  endfacet
  facet normal -1 0 0
    outer loop
      vertex -20 5.1341 -5.46726
      vertex -20 5.1341 5.46726
      vertex -20 5.46726 5.1341
    endloop
  endfacet
  facet normal -1 0 0
    outer loop
      vertex -20 4.78068 -5.77885
      vertex -20 5.1341 5.46726
      vertex -20 5.1341 -5.46726
    endloop
  endfacet
  facet normal -1 0 0
    outer loop
      vertex -20 4.78068 -5.77885
      vertex -20 4.78068 5.77885
      vertex -20 5.1341 5.46726
    endloop
  endfacet
  facet normal -1 0 0
    outer loop
      vertex -20 4.40839 -6.06763
      vertex -20 4.78068 5.77885
      vertex -20 4.78068 -5.77885
    endloop
  endfacet
  facet normal -1 0 0
    outer loop
      vertex -20 4.40839 -6.06763
      vertex -20 4.40839 6.06763
      vertex -20 4.78068 5.77885
    endloop
  endfacet
  facet normal -1 0 0
    outer loop
      vertex -20 4.0187 -6.33246
      vertex -20 4.40839 6.06763
      vertex -20 4.40839 -6.06763
    endloop
  endfacet
  facet normal -1 0 0
    outer loop
      vertex -20 4.0187 -6.33246
      vertex -20 4.0187 6.33246
      vertex -20 4.40839 6.06763
    endloop
  endfacet
  facet normal -1 0 0
    outer loop
      vertex -20 3.61315 -6.5723
      vertex -20 4.0187 6.33246
      vertex -20 4.0187 -6.33246
    endloop
  endfacet
  facet normal -1 0 0
    outer loop
      vertex -20 3.61315 -6.5723
      vertex -20 3.61315 6.5723
      vertex -20 4.0187 6.33246
    endloop
  endfacet
  facet normal -1 0 0
    outer loop
      vertex -20 3.19334 -6.7862
      vertex -20 3.61315 6.5723
      vertex -20 3.61315 -6.5723
    endloop
  endfacet
  facet normal -1 0 0
    outer loop
      vertex -20 3.19334 -6.7862
      vertex -20 3.19334 6.7862
      vertex -20 3.61315 6.5723
    endloop
  endfacet
  facet normal -1 0 0
    outer loop
      vertex -20 2.76093 -6.97332
      vertex -20 3.19334 6.7862
      vertex -20 3.19334 -6.7862
    endloop
  endfacet
  facet normal -1 0 0
    outer loop
      vertex -20 2.76093 -6.97332
      vertex -20 2.76093 6.97332
      vertex -20 3.19334 6.7862
    endloop
  endfacet
  facet normal -1 0 0
    outer loop
      vertex -20 2.31763 -7.13292
      vertex -20 2.76093 6.97332
      vertex -20 2.76093 -6.97332
    endloop
  endfacet
  facet normal -1 0 0
    outer loop
      vertex -20 2.31763 -7.13292
      vertex -20 2.31763 7.13292
      vertex -20 2.76093 6.97332
    endloop
  endfacet
  facet normal -1 0 0
    outer loop
      vertex -20 1.86517 -7.26437
      vertex -20 2.31763 7.13292
      vertex -20 2.31763 -7.13292
    endloop
  endfacet
  facet normal -1 0 0
    outer loop
      vertex -20 1.86517 -7.26437
      vertex -20 1.86517 7.26437
      vertex -20 2.31763 7.13292
    endloop
  endfacet
  facet normal -1 0 0
    outer loop
      vertex -20 1.40536 -7.36715
      vertex -20 1.86517 7.26437
      vertex -20 1.86517 -7.26437
    endloop
  endfacet
  facet normal -1 0 0
    outer loop
      vertex -20 1.40536 -7.36715
      vertex -20 1.40536 7.36715
      vertex -20 1.86517 7.26437
    endloop
  endfacet
  facet normal -1 0 0
    outer loop
      vertex -20 0.939999 -7.44086
      vertex -20 1.40536 7.36715
      vertex -20 1.40536 -7.36715
    endloop
  endfacet
  facet normal -1 0 0
    outer loop
      vertex -20 0.939999 -7.44086
      vertex -20 0.939999 7.44086
      vertex -20 1.40536 7.36715
    endloop
  endfacet
  facet normal -1 0 0
    outer loop
      vertex -20 0.470929 -7.4852
      vertex -20 0.939999 7.44086
      vertex -20 0.939999 -7.44086
    endloop
  endfacet
  facet normal -1 0 0
    outer loop
      vertex -20 0.470929 -7.4852
      vertex -20 0.470929 7.4852
      vertex -20 0.939999 7.44086
    endloop
  endfacet
  facet normal -1 0 0
    outer loop
      vertex -20 0.470929 -7.4852
      vertex -20 9.18485e-16 7.5
      vertex -20 0.470929 7.4852
    endloop
  endfacet
  facet normal -1 0 0
    outer loop
      vertex -20 0 -7.5
      vertex -20 9.18485e-16 7.5
      vertex -20 0.470929 -7.4852
    endloop
  endfacet
  facet normal -1 0 0
    outer loop
      vertex -20 -0.470929 -7.4852
      vertex -20 9.18485e-16 7.5
      vertex -20 0 -7.5
    endloop
  endfacet
  facet normal -1 0 0
    outer loop
      vertex -20 -0.470929 -7.4852
      vertex -20 -0.470929 7.4852
      vertex -20 9.18485e-16 7.5
    endloop
  endfacet
  facet normal -1 0 0
    outer loop
      vertex -20 -0.939999 -7.44086
      vertex -20 -0.470929 7.4852
      vertex -20 -0.470929 -7.4852
    endloop
  endfacet
  facet normal -1 0 0
    outer loop
      vertex -20 -0.939999 -7.44086
      vertex -20 -0.939999 7.44086
      vertex -20 -0.470929 7.4852
    endloop
  endfacet
  facet normal -1 0 0
    outer loop
      vertex -20 -1.40536 -7.36715
      vertex -20 -0.939999 7.44086
      vertex -20 -0.939999 -7.44086
    endloop
  endfacet
  facet normal -1 0 0
    outer loop
      vertex -20 -1.40536 -7.36715
      vertex -20 -1.40536 7.36715
      vertex -20 -0.939999 7.44086
    endloop
  endfacet
  facet normal -1 0 0
    outer loop
      vertex -20 -1.86517 -7.26437
      vertex -20 -1.40536 7.36715
      vertex -20 -1.40536 -7.36715
    endloop
  endfacet
  facet normal -1 0 0
    outer loop
      vertex -20 -1.86517 -7.26437
      vertex -20 -1.86517 7.26437
      vertex -20 -1.40536 7.36715
    endloop
  endfacet
  facet normal -1 0 0
    outer loop
      vertex -20 -2.31763 -7.13292
      vertex -20 -1.86517 7.26437
      vertex -20 -1.86517 -7.26437
    endloop
  endfacet
  facet normal -1 0 0
    outer loop
      vertex -20 -2.31763 -7.13292
      vertex -20 -2.31763 7.13292
      vertex -20 -1.86517 7.26437
    endloop
  endfacet
  facet normal -1 0 0
    outer loop
      vertex -20 -2.76093 -6.97332
      vertex -20 -2.31763 7.13292
      vertex -20 -2.31763 -7.13292
    endloop
  endfacet
  facet normal -1 0 0
    outer loop
      vertex -20 -2.76093 -6.97332
      vertex -20 -2.76093 6.97332
      vertex -20 -2.31763 7.13292
    endloop
  endfacet
  facet normal -1 0 0
    outer loop
      vertex -20 -3.19334 -6.7862
      vertex -20 -2.76093 6.97332
      vertex -20 -2.76093 -6.97332
    endloop
  endfacet
  facet normal -1 0 0
    outer loop
      vertex -20 -3.19334 -6.7862
      vertex -20 -3.19334 6.7862
      vertex -20 -2.76093 6.97332
    endloop
  endfacet
  facet normal -1 0 0
    outer loop
      vertex -20 -3.61315 -6.5723
      vertex -20 -3.19334 6.7862
      vertex -20 -3.19334 -6.7862
    endloop
  endfacet
  facet normal -1 0 0
    outer loop
      vertex -20 -3.61315 -6.5723
      vertex -20 -3.61315 6.5723
      vertex -20 -3.19334 6.7862
    endloop
  endfacet
  facet normal -1 0 0
    outer loop
      vertex -20 -4.0187 -6.33246
      vertex -20 -3.61315 6.5723
      vertex -20 -3.61315 -6.5723
    endloop
  endfacet
  facet normal -1 0 0
    outer loop
      vertex -20 -4.0187 -6.33246
      vertex -20 -4.0187 6.33246
      vertex -20 -3.61315 6.5723
    endloop
  endfacet
  facet normal -1 0 0
    outer loop
      vertex -20 -4.40839 -6.06763
      vertex -20 -4.0187 6.33246
      vertex -20 -4.0187 -6.33246
    endloop
  endfacet
  facet normal -1 0 0
    outer loop
      vertex -20 -4.40839 -6.06763
      vertex -20 -4.40839 6.06763
      vertex -20 -4.0187 6.33246
    endloop
  endfacet
  facet normal -1 0 0
    outer loop
      vertex -20 -4.78068 -5.77885
      vertex -20 -4.40839 6.06763
      vertex -20 -4.40839 -6.06763
    endloop
  endfacet
  facet normal -1 0 0
    outer loop
      vertex -20 -4.78068 -5.77885
      vertex -20 -4.78068 5.77885
      vertex -20 -4.40839 6.06763
    endloop
  endfacet
  facet normal -1 0 0
    outer loop
      vertex -20 -5.1341 -5.46726
      vertex -20 -4.78068 5.77885
      vertex -20 -4.78068 -5.77885
    endloop
  endfacet
  facet normal -1 0 0
    outer loop
      vertex -20 -5.1341 -5.46726
      vertex -20 -5.1341 5.46726
      vertex -20 -4.78068 5.77885
    endloop
  endfacet
  facet normal -1 0 0
    outer loop
      vertex -20 -5.46726 -5.1341
      vertex -20 -5.1341 5.46726
      vertex -20 -5.1341 -5.46726
    endloop
  endfacet
  facet normal -1 0 0
    outer loop
      vertex -20 -5.46726 -5.1341
      vertex -20 -5.46726 5.1341
      vertex -20 -5.1341 5.46726
    endloop
  endfacet
  facet normal -1 0 0
    outer loop
      vertex -20 -5.77885 -4.78068
      vertex -20 -5.46726 5.1341
      vertex -20 -5.46726 -5.1341
    endloop
  endfacet
  facet normal -1 0 0
    outer loop
      vertex -20 -5.77885 -4.78068
      vertex -20 -5.77885 4.78068
      vertex -20 -5.46726 5.1341
    endloop
  endfacet
  facet normal -1 0 0
    outer loop
      vertex -20 -6.06763 -4.40839
      vertex -20 -5.77885 4.78068
      vertex -20 -5.77885 -4.78068
    endloop
  endfacet
  facet normal -1 0 0
    outer loop
      vertex -20 -6.06763 -4.40839
      vertex -20 -6.06763 4.40839
      vertex -20 -5.77885 4.78068
    endloop
  endfacet
  facet normal -1 0 0
    outer loop
      vertex -20 -6.33246 -4.0187
      vertex -20 -6.06763 4.40839
      vertex -20 -6.06763 -4.40839
    endloop
  endfacet
  facet normal -1 0 0
    outer loop
      vertex -20 -6.33246 -4.0187
      vertex -20 -6.33246 4.0187
      vertex -20 -6.06763 4.40839
    endloop
  endfacet
  facet normal -1 0 0
    outer loop
      vertex -20 -6.5723 -3.61315
      vertex -20 -6.33246 4.0187
      vertex -20 -6.33246 -4.0187
    endloop
  endfacet
  facet normal -1 0 0
    outer loop
      vertex -20 -6.5723 -3.61315
      vertex -20 -6.5723 3.61315
      vertex -20 -6.33246 4.0187
    endloop
  endfacet
  facet normal -1 0 0
    outer loop
      vertex -20 -6.7862 -3.19334
      vertex -20 -6.5723 3.61315
      vertex -20 -6.5723 -3.61315
    endloop
  endfacet
  facet normal -1 0 0
    outer loop
      vertex -20 -6.7862 -3.19334
      vertex -20 -6.7862 3.19334
      vertex -20 -6.5723 3.61315
    endloop
  endfacet
  facet normal -1 0 0
    outer loop
      vertex -20 -6.97332 -2.76093
      vertex -20 -6.7862 3.19334
      vertex -20 -6.7862 -3.19334
    endloop
  endfacet
  facet normal -1 0 0
    outer loop
      vertex -20 -6.97332 -2.76093
      vertex -20 -6.97332 2.76093
      vertex -20 -6.7862 3.19334
    endloop
  endfacet
  facet normal -1 0 0
    outer loop
      vertex -20 -7.13292 -2.31763
      vertex -20 -6.97332 2.76093
      vertex -20 -6.97332 -2.76093
    endloop
  endfacet
  facet normal -1 0 0
    outer loop
      vertex -20 -7.13292 -2.31763
      vertex -20 -7.13292 2.31763
      vertex -20 -6.97332 2.76093
    endloop
  endfacet
  facet normal -1 0 0
    outer loop
      vertex -20 -7.26437 -1.86517
      vertex -20 -7.13292 2.31763
      vertex -20 -7.13292 -2.31763
    endloop
  endfacet
  facet normal -1 0 0
    outer loop
      vertex -20 -7.26437 -1.86517
      vertex -20 -7.26437 1.86517
      vertex -20 -7.13292 2.31763
    endloop
  endfacet
  facet normal -1 0 0
    outer loop
      vertex -20 -7.36715 -1.40536
      vertex -20 -7.26437 1.86517
      vertex -20 -7.26437 -1.86517
    endloop
  endfacet
  facet normal -1 0 0
    outer loop
      vertex -20 -7.36715 -1.40536
      vertex -20 -7.36715 1.40536
      vertex -20 -7.26437 1.86517
    endloop
  endfacet
  facet normal -1 0 0
    outer loop
      vertex -20 -7.44086 -0.939999
      vertex -20 -7.36715 1.40536
      vertex -20 -7.36715 -1.40536
    endloop
  endfacet
  facet normal -1 0 0
    outer loop
      vertex -20 -7.44086 -0.939999
      vertex -20 -7.44086 0.939999
      vertex -20 -7.36715 1.40536
    endloop
  endfacet
  facet normal -1 0 0
    outer loop
      vertex -20 -7.4852 -0.470929
      vertex -20 -7.44086 0.939999
      vertex -20 -7.44086 -0.939999
    endloop
  endfacet
  facet normal -1 0 0
    outer loop
      vertex -20 -7.4852 -0.470929
      vertex -20 -7.4852 0.470929
      vertex -20 -7.44086 0.939999
    endloop
  endfacet
  facet normal -1 0 -0
    outer loop
      vertex -20 -7.4852 0.470929
      vertex -20 -7.4852 -0.470929
      vertex -20 -7.5 1.37773e-15
    endloop
  endfacet
  facet normal 1 0 0
    outer loop
      vertex 280 7.4852 0.470929
      vertex 280 7.4852 -0.470929
      vertex 280 7.5 6.61541e-14
    endloop
  endfacet
  facet normal 1 0 0
    outer loop
      vertex 280 7.44086 0.939999
      vertex 280 7.4852 -0.470929
      vertex 280 7.4852 0.470929
    endloop
  endfacet
  facet normal 1 0 0
    outer loop
      vertex 280 7.44086 0.939999
      vertex 280 7.44086 -0.939999
      vertex 280 7.4852 -0.470929
    endloop
  endfacet
  facet normal 1 0 0
    outer loop
      vertex 280 7.36715 1.40536
      vertex 280 7.44086 -0.939999
      vertex 280 7.44086 0.939999
    endloop
  endfacet
  facet normal 1 0 0
    outer loop
      vertex 280 7.36715 1.40536
      vertex 280 7.36715 -1.40536
      vertex 280 7.44086 -0.939999
    endloop
  endfacet
  facet normal 1 0 0
    outer loop
      vertex 280 7.26437 1.86517
      vertex 280 7.36715 -1.40536
      vertex 280 7.36715 1.40536
    endloop
  endfacet
  facet normal 1 0 0
    outer loop
      vertex 280 7.26437 1.86517
      vertex 280 7.26437 -1.86517
      vertex 280 7.36715 -1.40536
    endloop
  endfacet
  facet normal 1 0 0
    outer loop
      vertex 280 7.13292 2.31763
      vertex 280 7.26437 -1.86517
      vertex 280 7.26437 1.86517
    endloop
  endfacet
  facet normal 1 0 0
    outer loop
      vertex 280 7.13292 2.31763
      vertex 280 7.13292 -2.31763
      vertex 280 7.26437 -1.86517
    endloop
  endfacet
  facet normal 1 0 0
    outer loop
      vertex 280 6.97332 2.76093
      vertex 280 7.13292 -2.31763
      vertex 280 7.13292 2.31763
    endloop
  endfacet
  facet normal 1 0 0
    outer loop
      vertex 280 6.97332 2.76093
      vertex 280 6.97332 -2.76093
      vertex 280 7.13292 -2.31763
    endloop
  endfacet
  facet normal 1 0 0
    outer loop
      vertex 280 6.7862 3.19334
      vertex 280 6.97332 -2.76093
      vertex 280 6.97332 2.76093
    endloop
  endfacet
  facet normal 1 0 0
    outer loop
      vertex 280 6.7862 3.19334
      vertex 280 6.7862 -3.19334
      vertex 280 6.97332 -2.76093
    endloop
  endfacet
  facet normal 1 0 0
    outer loop
      vertex 280 6.5723 3.61315
      vertex 280 6.7862 -3.19334
      vertex 280 6.7862 3.19334
    endloop
  endfacet
  facet normal 1 0 0
    outer loop
      vertex 280 6.5723 3.61315
      vertex 280 6.5723 -3.61315
      vertex 280 6.7862 -3.19334
    endloop
  endfacet
  facet normal 1 0 0
    outer loop
      vertex 280 6.33246 4.0187
      vertex 280 6.5723 -3.61315
      vertex 280 6.5723 3.61315
    endloop
  endfacet
  facet normal 1 0 0
    outer loop
      vertex 280 6.33246 4.0187
      vertex 280 6.33246 -4.0187
      vertex 280 6.5723 -3.61315
    endloop
  endfacet
  facet normal 1 0 0
    outer loop
      vertex 280 6.06763 4.40839
      vertex 280 6.33246 -4.0187
      vertex 280 6.33246 4.0187
    endloop
  endfacet
  facet normal 1 0 0
    outer loop
      vertex 280 6.06763 4.40839
      vertex 280 6.06763 -4.40839
      vertex 280 6.33246 -4.0187
    endloop
  endfacet
  facet normal 1 0 0
    outer loop
      vertex 280 5.77885 4.78068
      vertex 280 6.06763 -4.40839
      vertex 280 6.06763 4.40839
    endloop
  endfacet
  facet normal 1 0 0
    outer loop
      vertex 280 5.77885 4.78068
      vertex 280 5.77885 -4.78068
      vertex 280 6.06763 -4.40839
    endloop
  endfacet
  facet normal 1 0 0
    outer loop
      vertex 280 5.46726 5.1341
      vertex 280 5.77885 -4.78068
      vertex 280 5.77885 4.78068
    endloop
  endfacet
  facet normal 1 0 0
    outer loop
      vertex 280 5.46726 5.1341
      vertex 280 5.46726 -5.1341
      vertex 280 5.77885 -4.78068
    endloop
  endfacet
  facet normal 1 0 0
    outer loop
      vertex 280 5.1341 5.46726
      vertex 280 5.46726 -5.1341
      vertex 280 5.46726 5.1341
    endloop
  endfacet
  facet normal 1 0 0
    outer loop
      vertex 280 5.1341 5.46726
      vertex 280 5.1341 -5.46726
      vertex 280 5.46726 -5.1341
    endloop
  endfacet
  facet normal 1 0 0
    outer loop
      vertex 280 4.78068 5.77885
      vertex 280 5.1341 -5.46726
      vertex 280 5.1341 5.46726
    endloop
  endfacet
  facet normal 1 0 0
    outer loop
      vertex 280 4.78068 5.77885
      vertex 280 4.78068 -5.77885
      vertex 280 5.1341 -5.46726
    endloop
  endfacet
  facet normal 1 0 0
    outer loop
      vertex 280 4.40839 6.06763
      vertex 280 4.78068 -5.77885
      vertex 280 4.78068 5.77885
    endloop
  endfacet
  facet normal 1 0 0
    outer loop
      vertex 280 4.40839 6.06763
      vertex 280 4.40839 -6.06763
      vertex 280 4.78068 -5.77885
    endloop
  endfacet
  facet normal 1 0 0
    outer loop
      vertex 280 4.0187 6.33246
      vertex 280 4.40839 -6.06763
      vertex 280 4.40839 6.06763
    endloop
  endfacet
  facet normal 1 0 0
    outer loop
      vertex 280 4.0187 6.33246
      vertex 280 4.0187 -6.33246
      vertex 280 4.40839 -6.06763
    endloop
  endfacet
  facet normal 1 0 0
    outer loop
      vertex 280 3.61315 6.5723
      vertex 280 4.0187 -6.33246
      vertex 280 4.0187 6.33246
    endloop
  endfacet
  facet normal 1 0 0
    outer loop
      vertex 280 3.61315 6.5723
      vertex 280 3.61315 -6.5723
      vertex 280 4.0187 -6.33246
    endloop
  endfacet
  facet normal 1 0 0
    outer loop
      vertex 280 3.19334 6.7862
      vertex 280 3.61315 -6.5723
      vertex 280 3.61315 6.5723
    endloop
  endfacet
  facet normal 1 0 0
    outer loop
      vertex 280 3.19334 6.7862
      vertex 280 3.19334 -6.7862
      vertex 280 3.61315 -6.5723
    endloop
  endfacet
  facet normal 1 0 0
    outer loop
      vertex 280 2.76093 6.97332
      vertex 280 3.19334 -6.7862
      vertex 280 3.19334 6.7862
    endloop
  endfacet
  facet normal 1 0 0
    outer loop
      vertex 280 2.76093 6.97332
      vertex 280 2.76093 -6.97332
      vertex 280 3.19334 -6.7862
    endloop
  endfacet
  facet normal 1 0 0
    outer loop
      vertex 280 2.31763 7.13292
      vertex 280 2.76093 -6.97332
      vertex 280 2.76093 6.97332
    endloop
  endfacet
  facet normal 1 0 0
    outer loop
      vertex 280 2.31763 7.13292
      vertex 280 2.31763 -7.13292
      vertex 280 2.76093 -6.97332
    endloop
  endfacet
  facet normal 1 0 0
    outer loop
      vertex 280 1.86517 7.26437
      vertex 280 2.31763 -7.13292
      vertex 280 2.31763 7.13292
    endloop
  endfacet
  facet normal 1 0 0
    outer loop
      vertex 280 1.86517 7.26437
      vertex 280 1.86517 -7.26437
      vertex 280 2.31763 -7.13292
    endloop
  endfacet
  facet normal 1 0 0
    outer loop
      vertex 280 1.40536 7.36715
      vertex 280 1.86517 -7.26437
      vertex 280 1.86517 7.26437
    endloop
  endfacet
  facet normal 1 0 0
    outer loop
      vertex 280 1.40536 7.36715
      vertex 280 1.40536 -7.36715
      vertex 280 1.86517 -7.26437
    endloop
  endfacet
  facet normal 1 0 0
    outer loop
      vertex 280 0.939999 7.44086
      vertex 280 1.40536 -7.36715
      vertex 280 1.40536 7.36715
    endloop
  endfacet
  facet normal 1 0 0
    outer loop
      vertex 280 0.939999 7.44086
      vertex 280 0.939999 -7.44086
      vertex 280 1.40536 -7.36715
    endloop
  endfacet
  facet normal 1 0 0
    outer loop
      vertex 280 0.470929 7.4852
      vertex 280 0.939999 -7.44086
      vertex 280 0.939999 7.44086
    endloop
  endfacet
  facet normal 1 0 0
    outer loop
      vertex 280 0.470929 7.4852
      vertex 280 0.470929 -7.4852
      vertex 280 0.939999 -7.44086
    endloop
  endfacet
  facet normal 1 0 0
    outer loop
      vertex 280 9.18485e-16 7.5
      vertex 280 0.470929 -7.4852
      vertex 280 0.470929 7.4852
    endloop
  endfacet
  facet normal 1 0 0
    outer loop
      vertex 280 9.18485e-16 7.5
      vertex 280 0 -7.5
      vertex 280 0.470929 -7.4852
    endloop
  endfacet
  facet normal 1 -0 0
    outer loop
      vertex 280 -0.470929 7.4852
      vertex 280 0 -7.5
      vertex 280 9.18485e-16 7.5
    endloop
  endfacet
  facet normal 1 0 0
    outer loop
      vertex 280 -0.470929 7.4852
      vertex 280 -0.470929 -7.4852
      vertex 280 0 -7.5
    endloop
  endfacet
  facet normal 1 -0 0
    outer loop
      vertex 280 -0.939999 7.44086
      vertex 280 -0.470929 -7.4852
      vertex 280 -0.470929 7.4852
    endloop
  endfacet
  facet normal 1 0 0
    outer loop
      vertex 280 -0.939999 7.44086
      vertex 280 -0.939999 -7.44086
      vertex 280 -0.470929 -7.4852
    endloop
  endfacet
  facet normal 1 -0 0
    outer loop
      vertex 280 -1.40536 7.36715
      vertex 280 -0.939999 -7.44086
      vertex 280 -0.939999 7.44086
    endloop
  endfacet
  facet normal 1 0 0
    outer loop
      vertex 280 -1.40536 7.36715
      vertex 280 -1.40536 -7.36715
      vertex 280 -0.939999 -7.44086
    endloop
  endfacet
  facet normal 1 -0 0
    outer loop
      vertex 280 -1.86517 7.26437
      vertex 280 -1.40536 -7.36715
      vertex 280 -1.40536 7.36715
    endloop
  endfacet
  facet normal 1 0 0
    outer loop
      vertex 280 -1.86517 7.26437
      vertex 280 -1.86517 -7.26437
      vertex 280 -1.40536 -7.36715
    endloop
  endfacet
  facet normal 1 -0 0
    outer loop
      vertex 280 -2.31763 7.13292
      vertex 280 -1.86517 -7.26437
      vertex 280 -1.86517 7.26437
    endloop
  endfacet
  facet normal 1 0 0
    outer loop
      vertex 280 -2.31763 7.13292
      vertex 280 -2.31763 -7.13292
      vertex 280 -1.86517 -7.26437
    endloop
  endfacet
  facet normal 1 -0 0
    outer loop
      vertex 280 -2.76093 6.97332
      vertex 280 -2.31763 -7.13292
      vertex 280 -2.31763 7.13292
    endloop
  endfacet
  facet normal 1 0 0
    outer loop
      vertex 280 -2.76093 6.97332
      vertex 280 -2.76093 -6.97332
      vertex 280 -2.31763 -7.13292
    endloop
  endfacet
  facet normal 1 -0 0
    outer loop
      vertex 280 -3.19334 6.7862
      vertex 280 -2.76093 -6.97332
      vertex 280 -2.76093 6.97332
    endloop
  endfacet
  facet normal 1 0 0
    outer loop
      vertex 280 -3.19334 6.7862
      vertex 280 -3.19334 -6.7862
      vertex 280 -2.76093 -6.97332
    endloop
  endfacet
  facet normal 1 -0 0
    outer loop
      vertex 280 -3.61315 6.5723
      vertex 280 -3.19334 -6.7862
      vertex 280 -3.19334 6.7862
    endloop
  endfacet
  facet normal 1 0 0
    outer loop
      vertex 280 -3.61315 6.5723
      vertex 280 -3.61315 -6.5723
      vertex 280 -3.19334 -6.7862
    endloop
  endfacet
  facet normal 1 -0 0
    outer loop
      vertex 280 -4.0187 6.33246
      vertex 280 -3.61315 -6.5723
      vertex 280 -3.61315 6.5723
    endloop
  endfacet
  facet normal 1 0 0
    outer loop
      vertex 280 -4.0187 6.33246
      vertex 280 -4.0187 -6.33246
      vertex 280 -3.61315 -6.5723
    endloop
  endfacet
  facet normal 1 -0 0
    outer loop
      vertex 280 -4.40839 6.06763
      vertex 280 -4.0187 -6.33246
      vertex 280 -4.0187 6.33246
    endloop
  endfacet
  facet normal 1 0 0
    outer loop
      vertex 280 -4.40839 6.06763
      vertex 280 -4.40839 -6.06763
      vertex 280 -4.0187 -6.33246
    endloop
  endfacet
  facet normal 1 -0 0
    outer loop
      vertex 280 -4.78068 5.77885
      vertex 280 -4.40839 -6.06763
      vertex 280 -4.40839 6.06763
    endloop
  endfacet
  facet normal 1 0 0
    outer loop
      vertex 280 -4.78068 5.77885
      vertex 280 -4.78068 -5.77885
      vertex 280 -4.40839 -6.06763
    endloop
  endfacet
  facet normal 1 -0 0
    outer loop
      vertex 280 -5.1341 5.46726
      vertex 280 -4.78068 -5.77885
      vertex 280 -4.78068 5.77885
    endloop
  endfacet
  facet normal 1 0 0
    outer loop
      vertex 280 -5.1341 5.46726
      vertex 280 -5.1341 -5.46726
      vertex 280 -4.78068 -5.77885
    endloop
  endfacet
  facet normal 1 -0 0
    outer loop
      vertex 280 -5.46726 5.1341
      vertex 280 -5.1341 -5.46726
      vertex 280 -5.1341 5.46726
    endloop
  endfacet
  facet normal 1 0 0
    outer loop
      vertex 280 -5.46726 5.1341
      vertex 280 -5.46726 -5.1341
      vertex 280 -5.1341 -5.46726
    endloop
  endfacet
  facet normal 1 -0 0
    outer loop
      vertex 280 -5.77885 4.78068
      vertex 280 -5.46726 -5.1341
      vertex 280 -5.46726 5.1341
    endloop
  endfacet
  facet normal 1 0 0
    outer loop
      vertex 280 -5.77885 4.78068
      vertex 280 -5.77885 -4.78068
      vertex 280 -5.46726 -5.1341
    endloop
  endfacet
  facet normal 1 -0 0
    outer loop
      vertex 280 -6.06763 4.40839
      vertex 280 -5.77885 -4.78068
      vertex 280 -5.77885 4.78068
    endloop
  endfacet
  facet normal 1 0 0
    outer loop
      vertex 280 -6.06763 4.40839
      vertex 280 -6.06763 -4.40839
      vertex 280 -5.77885 -4.78068
    endloop
  endfacet
  facet normal 1 -0 0
    outer loop
      vertex 280 -6.33246 4.0187
      vertex 280 -6.06763 -4.40839
      vertex 280 -6.06763 4.40839
    endloop
  endfacet
  facet normal 1 0 0
    outer loop
      vertex 280 -6.33246 4.0187
      vertex 280 -6.33246 -4.0187
      vertex 280 -6.06763 -4.40839
    endloop
  endfacet
  facet normal 1 -0 0
    outer loop
      vertex 280 -6.5723 3.61315
      vertex 280 -6.33246 -4.0187
      vertex 280 -6.33246 4.0187
    endloop
  endfacet
  facet normal 1 0 0
    outer loop
      vertex 280 -6.5723 3.61315
      vertex 280 -6.5723 -3.61315
      vertex 280 -6.33246 -4.0187
    endloop
  endfacet
  facet normal 1 -0 0
    outer loop
      vertex 280 -6.7862 3.19334
      vertex 280 -6.5723 -3.61315
      vertex 280 -6.5723 3.61315
    endloop
  endfacet
  facet normal 1 0 0
    outer loop
      vertex 280 -6.7862 3.19334
      vertex 280 -6.7862 -3.19334
      vertex 280 -6.5723 -3.61315
    endloop
  endfacet
  facet normal 1 -0 0
    outer loop
      vertex 280 -6.97332 2.76093
      vertex 280 -6.7862 -3.19334
      vertex 280 -6.7862 3.19334
    endloop
  endfacet
  facet normal 1 0 0
    outer loop
      vertex 280 -6.97332 2.76093
      vertex 280 -6.97332 -2.76093
      vertex 280 -6.7862 -3.19334
    endloop
  endfacet
  facet normal 1 -0 0
    outer loop
      vertex 280 -7.13292 2.31763
      vertex 280 -6.97332 -2.76093
      vertex 280 -6.97332 2.76093
    endloop
  endfacet
  facet normal 1 0 0
    outer loop
      vertex 280 -7.13292 2.31763
      vertex 280 -7.13292 -2.31763
      vertex 280 -6.97332 -2.76093
    endloop
  endfacet
  facet normal 1 -0 0
    outer loop
      vertex 280 -7.26437 1.86517
      vertex 280 -7.13292 -2.31763
      vertex 280 -7.13292 2.31763
    endloop
  endfacet
  facet normal 1 0 0
    outer loop
      vertex 280 -7.26437 1.86517
      vertex 280 -7.26437 -1.86517
      vertex 280 -7.13292 -2.31763
    endloop
  endfacet
  facet normal 1 -0 0
    outer loop
      vertex 280 -7.36715 1.40536
      vertex 280 -7.26437 -1.86517
      vertex 280 -7.26437 1.86517
    endloop
  endfacet
  facet normal 1 0 0
    outer loop
      vertex 280 -7.36715 1.40536
      vertex 280 -7.36715 -1.40536
      vertex 280 -7.26437 -1.86517
    endloop
  endfacet
  facet normal 1 -0 0
    outer loop
      vertex 280 -7.44086 0.939999
      vertex 280 -7.36715 -1.40536
      vertex 280 -7.36715 1.40536
    endloop
  endfacet
  facet normal 1 0 0
    outer loop
      vertex 280 -7.44086 0.939999
      vertex 280 -7.44086 -0.939999
      vertex 280 -7.36715 -1.40536
    endloop
  endfacet
  facet normal 1 -0 0
    outer loop
      vertex 280 -7.4852 0.470929
      vertex 280 -7.44086 -0.939999
      vertex 280 -7.44086 0.939999
    endloop
  endfacet
  facet normal 1 0 0
    outer loop
      vertex 280 -7.4852 0.470929
      vertex 280 -7.4852 -0.470929
      vertex 280 -7.44086 -0.939999
    endloop
  endfacet
  facet normal 1 0 -0
    outer loop
      vertex 280 -7.4852 -0.470929
      vertex 280 -7.4852 0.470929
      vertex 280 -7.5 6.79911e-14
    endloop
  endfacet
endsolid OpenSCAD_Model
